<svg width="116" height="87" viewBox="0 0 116 87" fill="none" xmlns="http://www.w3.org/2000/svg">
<path d="M116 76.4563H0.534668V76.514H116V76.4563Z" fill="#EBEBEB"/>
<path d="M104.431 80.1719H96.7822V80.2297H104.431V80.1719Z" fill="#EBEBEB"/>
<path d="M63.6295 79.4491H60.6528V79.5069H63.6295V79.4491Z" fill="#EBEBEB"/>
<path d="M81.2841 79.6939H75.0166V79.7516H81.2841V79.6939Z" fill="#EBEBEB"/>
<path d="M96.5513 78.0289H83.5938V78.0866H96.5513V78.0289Z" fill="#EBEBEB"/>
<path d="M18.776 80.7008H12.6494V80.7585H18.776V80.7008Z" fill="#EBEBEB"/>
<path d="M26.1425 80.7008H20.8311V80.7585H26.1425V80.7008Z" fill="#EBEBEB"/>
<path d="M44.8295 79.4214H30.7866V79.4791H44.8295V79.4214Z" fill="#EBEBEB"/>
<path d="M55.2657 66.1567H10.6752C10.3259 66.1561 9.99107 66.0169 9.74428 65.7697C9.49749 65.5225 9.35889 65.1874 9.35889 64.8381V2.15647C9.36193 1.80915 9.50188 1.47706 9.74834 1.23233C9.9948 0.987598 10.3279 0.849991 10.6752 0.849396H55.2657C55.6154 0.849396 55.9508 0.988321 56.1981 1.23561C56.4454 1.4829 56.5843 1.81829 56.5843 2.16801V64.8381C56.5843 65.1878 56.4454 65.5232 56.1981 65.7705C55.9508 66.0178 55.6154 66.1567 55.2657 66.1567ZM10.6752 0.895582C10.3412 0.896194 10.0211 1.02931 9.78511 1.2657C9.54914 1.5021 9.41662 1.82246 9.41662 2.15647V64.8381C9.41662 65.1721 9.54914 65.4925 9.78511 65.7289C10.0211 65.9653 10.3412 66.0984 10.6752 66.099H55.2657C55.5999 66.0984 55.9203 65.9653 56.1566 65.729C56.3929 65.4927 56.526 65.1723 56.5266 64.8381V2.15647C56.526 1.82225 56.3929 1.50189 56.1566 1.26556C55.9203 1.02923 55.5999 0.896193 55.2657 0.895582H10.6752Z" fill="#EBEBEB"/>
<path d="M105.218 66.1567H60.6253C60.2757 66.1561 59.9407 66.017 59.6935 65.7698C59.4464 65.5227 59.3073 65.1876 59.3066 64.8381V2.15647C59.3103 1.80894 59.4507 1.47685 59.6976 1.23219C59.9444 0.987518 60.2777 0.849984 60.6253 0.849396H105.218C105.565 0.850598 105.897 0.988474 106.143 1.23314C106.389 1.47781 106.529 1.80955 106.532 2.15647V64.8381C106.532 65.187 106.394 65.5217 106.147 65.7689C105.901 66.016 105.567 66.1555 105.218 66.1567ZM60.6253 0.895582C60.291 0.896193 59.9707 1.02923 59.7344 1.26556C59.498 1.50189 59.365 1.82225 59.3644 2.15647V64.8381C59.365 65.1723 59.498 65.4927 59.7344 65.729C59.9707 65.9653 60.291 66.0984 60.6253 66.099H105.218C105.552 66.0984 105.873 65.9653 106.109 65.729C106.345 65.4927 106.478 65.1723 106.479 64.8381V2.15647C106.478 1.82225 106.345 1.50189 106.109 1.26556C105.873 1.02923 105.552 0.896193 105.218 0.895582H60.6253Z" fill="#EBEBEB"/>
<path d="M103.606 6.16081H68.6548V76.4563H103.606V6.16081Z" fill="#FAFAFA"/>
<path d="M92.3643 15.1671H79.894V32.5632H92.3643V15.1671Z" fill="white"/>
<path d="M103.604 76.4563H103.821L103.821 6.1608H103.604L103.604 76.4563Z" fill="#EBEBEB"/>
<path d="M101.872 76.4562H101.641V8.12372H70.6176V76.4562H70.3867V7.89279H101.872V76.4562Z" fill="#E0E0E0"/>
<path d="M99.1861 42.6087H94.3666C94.2702 42.6142 94.1738 42.6 94.0831 42.5669C93.9925 42.5338 93.9095 42.4825 93.8393 42.4163C93.7692 42.35 93.7133 42.2701 93.6751 42.1815C93.6369 42.0929 93.6172 41.9974 93.6172 41.9009C93.6172 41.8044 93.6369 41.7089 93.6751 41.6202C93.7133 41.5316 93.7692 41.4517 93.8393 41.3855C93.9095 41.3192 93.9925 41.2679 94.0831 41.2349C94.1738 41.2018 94.2702 41.1876 94.3666 41.1931H99.1861C99.2825 41.1876 99.3789 41.2018 99.4696 41.2349C99.5603 41.2679 99.6432 41.3192 99.7134 41.3855C99.7835 41.4517 99.8394 41.5316 99.8776 41.6202C99.9158 41.7089 99.9355 41.8044 99.9355 41.9009C99.9355 41.9974 99.9158 42.0929 99.8776 42.1815C99.8394 42.2701 99.7835 42.35 99.7134 42.4163C99.6432 42.4825 99.5603 42.5338 99.4696 42.5669C99.3789 42.6 99.2825 42.6142 99.1861 42.6087ZM94.3666 41.424C94.3012 41.4194 94.2355 41.4284 94.1737 41.4503C94.1119 41.4722 94.0553 41.5066 94.0073 41.5513C93.9594 41.596 93.9211 41.6502 93.895 41.7103C93.8688 41.7704 93.8554 41.8353 93.8554 41.9009C93.8554 41.9664 93.8688 42.0313 93.895 42.0914C93.9211 42.1516 93.9594 42.2057 94.0073 42.2504C94.0553 42.2952 94.1119 42.3295 94.1737 42.3514C94.2355 42.3733 94.3012 42.3823 94.3666 42.3777H99.1861C99.2515 42.3823 99.3172 42.3733 99.379 42.3514C99.4408 42.3295 99.4974 42.2952 99.5454 42.2504C99.5933 42.2057 99.6316 42.1516 99.6577 42.0914C99.6839 42.0313 99.6974 41.9664 99.6974 41.9009C99.6974 41.8353 99.6839 41.7704 99.6577 41.7103C99.6316 41.6502 99.5933 41.596 99.5454 41.5513C99.4974 41.5066 99.4408 41.4722 99.379 41.4503C99.3172 41.4284 99.2515 41.4194 99.1861 41.424H94.3666Z" fill="#E0E0E0"/>
<path d="M45.9681 25.8916H13.46V28.6812H45.9681V25.8916Z" fill="#FAFAFA"/>
<path d="M45.9662 28.6812H13.876V76.4563H45.9662V28.6812Z" fill="#FAFAFA"/>
<path d="M45.9682 76.4563H48.3237L48.3237 25.8939H45.9682L45.9682 76.4563Z" fill="#F0F0F0"/>
<path d="M28.9829 31.4524H16.5703V59.6837H28.9829V31.4524Z" fill="#F0F0F0"/>
<path d="M25.436 31.4524H22.524L20.1177 59.6814H23.0274L25.436 31.4524Z" fill="white"/>
<path d="M42.8692 74.2855H16.9749C16.8293 74.2849 16.6899 74.2268 16.5869 74.1239C16.484 74.0209 16.4259 73.8815 16.4253 73.7359V61.9584C16.4259 61.8128 16.484 61.6734 16.5869 61.5704C16.6899 61.4675 16.8293 61.4094 16.9749 61.4088H42.8692C43.0148 61.4094 43.1542 61.4675 43.2572 61.5704C43.3601 61.6734 43.4182 61.8128 43.4188 61.9584V73.7359C43.4182 73.8815 43.3601 74.0209 43.2572 74.1239C43.1542 74.2268 43.0148 74.2849 42.8692 74.2855ZM16.9749 61.6859C16.9059 61.6865 16.8399 61.7142 16.7911 61.763C16.7422 61.8118 16.7146 61.8778 16.714 61.9469V73.7243C16.7146 73.7934 16.7422 73.8594 16.7911 73.9082C16.8399 73.957 16.9059 73.9847 16.9749 73.9853H42.8692C42.9382 73.9847 43.0043 73.957 43.0531 73.9082C43.1019 73.8594 43.1296 73.7934 43.1302 73.7243V61.9469C43.1296 61.8778 43.1019 61.8118 43.0531 61.763C43.0043 61.7142 42.9382 61.6865 42.8692 61.6859H16.9749Z" fill="#F0F0F0"/>
<path d="M41.1788 64.2423C41.059 64.2423 40.9419 64.2068 40.8424 64.1402C40.7428 64.0736 40.6653 63.979 40.6196 63.8683C40.5738 63.7576 40.562 63.6358 40.5855 63.5184C40.6091 63.401 40.6669 63.2931 40.7518 63.2086C40.8366 63.1241 40.9446 63.0667 41.0622 63.0436C41.1797 63.0205 41.3014 63.0328 41.4119 63.0789C41.5224 63.1251 41.6168 63.203 41.683 63.3028C41.7492 63.4026 41.7843 63.5198 41.7838 63.6396C41.7838 63.7189 41.7681 63.7975 41.7377 63.8708C41.7073 63.944 41.6627 64.0106 41.6065 64.0666C41.5502 64.1226 41.4835 64.1669 41.4101 64.1971C41.3367 64.2272 41.2581 64.2426 41.1788 64.2423ZM41.1788 63.3186C41.1162 63.3186 41.055 63.3371 41.003 63.3719C40.951 63.4067 40.9104 63.4561 40.8865 63.5139C40.8625 63.5717 40.8563 63.6353 40.8685 63.6967C40.8807 63.7581 40.9108 63.8144 40.9551 63.8587C40.9993 63.9029 41.0557 63.933 41.117 63.9453C41.1784 63.9575 41.242 63.9512 41.2998 63.9273C41.3576 63.9033 41.4071 63.8628 41.4418 63.8107C41.4766 63.7587 41.4951 63.6975 41.4951 63.635C41.4948 63.5937 41.4864 63.5529 41.4704 63.5149C41.4543 63.477 41.4309 63.4425 41.4015 63.4136C41.3721 63.3846 41.3374 63.3617 41.2991 63.3462C41.2609 63.3307 41.22 63.3229 41.1788 63.3232V63.3186Z" fill="#F0F0F0"/>
<path d="M16.8913 31.4524H16.5703V59.6837H16.8913V31.4524Z" fill="#EBEBEB"/>
<path d="M43.2729 31.4524H30.8604V59.6837H43.2729V31.4524Z" fill="#F0F0F0"/>
<path d="M36.6107 31.4524H35.4122L33.0059 59.6814H34.2044L36.6107 31.4524Z" fill="white"/>
<path d="M38.4143 31.4524H37.2157L34.8071 59.6814H36.0057L38.4143 31.4524Z" fill="white"/>
<path d="M31.1813 31.4524H30.8604V59.6837H31.1813V31.4524Z" fill="#EBEBEB"/>
<path d="M45.9662 28.6812H13.876V29.0346H45.9662V28.6812Z" fill="#EBEBEB"/>
<path d="M52.3396 5.62967H19.0093V21.7186H52.3396V5.62967Z" fill="#FAFAFA"/>
<path d="M39.9547 19.6495C38.7731 19.6495 37.618 19.2991 36.6356 18.6427C35.6531 17.9862 34.8874 17.0532 34.4352 15.9615C33.9831 14.8699 33.8647 13.6687 34.0953 12.5098C34.3258 11.3509 34.8948 10.2864 35.7303 9.45091C36.5658 8.61541 37.6303 8.04642 38.7892 7.81591C39.948 7.58539 41.1492 7.7037 42.2409 8.15587C43.3325 8.60804 44.2656 9.37377 44.922 10.3562C45.5785 11.3387 45.9289 12.4937 45.9289 13.6753C45.9264 15.259 45.2962 16.7771 44.1764 17.897C43.0565 19.0168 41.5384 19.647 39.9547 19.6495ZM39.9547 7.93204C38.8187 7.93204 37.7083 8.26888 36.7639 8.89996C35.8194 9.53104 35.0833 10.428 34.6486 11.4775C34.2139 12.5269 34.1002 13.6817 34.3218 14.7958C34.5434 15.9098 35.0904 16.9332 35.8936 17.7364C36.6968 18.5396 37.7201 19.0866 38.8342 19.3082C39.9483 19.5298 41.1031 19.4161 42.1525 18.9814C43.202 18.5467 44.0989 17.8106 44.73 16.8661C45.3611 15.9216 45.6979 14.8112 45.6979 13.6753C45.6961 12.1527 45.0904 10.6929 44.0137 9.61623C42.9371 8.53956 41.4773 7.93388 39.9547 7.93204Z" fill="white"/>
<path d="M46.626 9.43311C46.9072 8.6797 46.957 7.85952 46.7692 7.07761L46.1457 7.05682C46.2847 7.81591 46.1905 8.59929 45.8755 9.30378C43.6055 9.28531 43.2036 11.6801 41.3908 11.1512C40.7437 10.9873 40.0691 10.9629 39.4117 11.0796C39.1384 11.1215 38.8683 11.1824 38.6035 11.2621C36.2018 11.8879 33.269 13.3843 32.7471 15.6313L33.3036 15.7375C33.3036 15.7375 33.6662 14.0702 36.0748 12.8809C35.8458 13.182 35.6758 13.5236 35.5737 13.8878C34.0934 19.3331 44.132 18.3748 46.7946 16.4742C50.0507 14.1626 48.6628 10.2367 46.626 9.43311Z" fill="#EBEBEB"/>
<path d="M30.7107 7.45172H20.6514V8.09371H30.7107V7.45172Z" fill="#EBEBEB"/>
<path d="M28.1705 9.089H20.6514V9.73099H28.1705V9.089Z" fill="#EBEBEB"/>
<path d="M30.7107 12.3613H20.6514V13.0033H30.7107V12.3613Z" fill="#EBEBEB"/>
<path d="M25.5148 13.9986H20.6514V14.6406H25.5148V13.9986Z" fill="#EBEBEB"/>
<path d="M29.7657 13.9986H26.3018V14.6406H29.7657V13.9986Z" fill="#EBEBEB"/>
<path d="M28.7478 15.6359H20.6514V16.2779H28.7478V15.6359Z" fill="#EBEBEB"/>
<path d="M30.7107 17.2709H20.6514V17.9129H30.7107V17.2709Z" fill="#EBEBEB"/>
<path d="M62.9807 76.4562H53.4871C53.3797 76.456 53.2759 76.4168 53.1952 76.3459C53.1145 76.275 53.0623 76.1771 53.0483 76.0706L51.1316 60.8176C51.1241 60.7555 51.1299 60.6924 51.1485 60.6327C51.1671 60.5729 51.1981 60.5178 51.2396 60.4709C51.281 60.424 51.3319 60.3864 51.3889 60.3606C51.4459 60.3347 51.5078 60.3213 51.5704 60.3211H64.8974C64.96 60.3213 65.0218 60.3347 65.0789 60.3606C65.1359 60.3864 65.1868 60.424 65.2282 60.4709C65.2697 60.5178 65.3007 60.5729 65.3193 60.6327C65.3379 60.6924 65.3437 60.7555 65.3362 60.8176L63.4195 76.0706C63.4059 76.1773 63.3539 76.2754 63.2731 76.3465C63.1923 76.4175 63.0883 76.4565 62.9807 76.4562Z" fill="#EBEBEB"/>
<path opacity="0.7" d="M50.9262 60.007C50.5798 60.2564 50.8546 64.1176 51.3096 64.9697C51.7645 65.8219 54.4803 65.0898 57.7225 64.8035C60.9648 64.5171 64.8491 65.6625 65.0177 64.9697C65.1862 64.2769 66.1331 60.5081 65.6366 60.007C65.2393 59.6052 60.4637 59.6052 58.3645 59.8454C56.2654 60.0855 51.6652 59.4782 50.9262 60.007Z" fill="#F5F5F5"/>
<path d="M58.2674 86.8851C82.9961 86.8851 103.043 85.7147 103.043 84.271C103.043 82.8272 82.9961 81.6568 58.2674 81.6568C33.5387 81.6568 13.4922 82.8272 13.4922 84.271C13.4922 85.7147 33.5387 86.8851 58.2674 86.8851Z" fill="#F5F5F5"/>
<path d="M38.4072 11.56C36.6637 9.92268 33.7886 9.60861 32.7124 11.3129C31.6363 13.0172 32.2506 14.8184 30.0429 16.7074C28.5418 17.9983 29.6549 21.9542 38.2178 21.5916C42.2707 21.4207 40.8989 17.2039 40.7904 15.211C40.6819 13.2181 40.6749 10.7794 38.4072 11.56Z" fill="#263238"/>
<path d="M35.0334 81.0795L32.9597 81.1603L32.9204 78.9157L34.9942 78.8349L35.0334 81.0795Z" fill="#B55B52"/>
<path d="M32.8303 80.7308H35.1743C35.2156 80.7303 35.2558 80.7441 35.2881 80.7697C35.3205 80.7954 35.3431 80.8313 35.3521 80.8717L35.7585 82.7307C35.7678 82.776 35.7669 82.8228 35.7557 82.8677C35.7446 82.9126 35.7235 82.9544 35.694 82.9901C35.6645 83.0258 35.6274 83.0544 35.5854 83.0738C35.5435 83.0933 35.4976 83.1031 35.4514 83.1025C34.6316 83.0886 34.2344 83.0401 33.2021 83.0401C32.567 83.0401 30.9205 83.1071 30.043 83.1071C29.1654 83.1071 29.0546 82.2388 29.4125 82.1603C31.029 81.8069 31.9689 81.322 32.4862 80.8578C32.5811 80.7741 32.7038 80.7288 32.8303 80.7308Z" fill="#263238"/>
<path opacity="0.2" d="M32.9204 78.918L32.9389 79.9618L35.0126 79.8717L34.9942 78.8372L32.9204 78.918Z" fill="black"/>
<path d="M29.8627 35.8701C29.4009 38.3595 29.932 50.5273 30.6364 55.9011C31.5739 63.0368 32.5438 79.6062 32.5438 79.6062L35.315 79.4399C35.315 79.4399 36.0078 61.9907 35.442 56.2613C35.763 48.8877 36.5574 36.0087 36.5574 36.0087L29.8627 35.8701Z" fill="#407BFF"/>
<path opacity="0.2" d="M36.098 44.0335C36.195 42.1653 34.8717 40.5049 34.3383 44.0335C34.0011 46.2759 34.6985 50.2063 35.613 52.9821C35.7539 50.0932 35.934 46.8763 36.098 44.0335Z" fill="black"/>
<path d="M50.27 74.0985L48.9214 75.387L47.0947 73.4288L48.4411 72.1425L50.27 74.0985Z" fill="#B55B52"/>
<path d="M48.5685 75.4217L49.9541 73.5234C49.9766 73.4904 50.0109 73.4673 50.05 73.4587C50.089 73.4501 50.1299 73.4567 50.1642 73.4772L51.7807 74.4287C51.8205 74.4551 51.8546 74.4893 51.8809 74.5292C51.9072 74.569 51.9252 74.6138 51.9338 74.6608C51.9425 74.7078 51.9415 74.756 51.9311 74.8026C51.9207 74.8492 51.9009 74.8933 51.8731 74.9321C51.3812 75.5856 51.111 75.8743 50.5037 76.7103C50.1296 77.223 49.6977 77.9296 49.1828 78.6409C48.6678 79.3521 47.9635 78.8418 48.1159 78.4977C48.8087 76.9528 48.5154 76.5232 48.4784 75.7866C48.4666 75.6583 48.4983 75.5297 48.5685 75.4217Z" fill="#263238"/>
<path opacity="0.2" d="M47.0947 73.4311L48.0369 74.4379L49.374 73.1401L48.4434 72.1425L47.0947 73.4311Z" fill="black"/>
<path d="M33.0771 35.9371C33.0771 35.9371 36.0608 51.6404 36.8367 57.737C37.2986 61.3788 47.4826 74.4818 47.4826 74.4818L49.2215 72.6505C49.2215 72.6505 45.4943 63.0576 41.005 57.3675C40.8272 50.6982 41.5847 39.7197 39.0075 36.0595L33.0771 35.9371Z" fill="#407BFF"/>
<path d="M30.4583 23.8963C30.4583 25.245 30.3959 26.5682 30.2966 27.9053C30.1973 29.2424 30.0657 30.5725 29.8509 31.9119L29.8117 32.1637L29.7585 32.4477C29.7185 32.634 29.6746 32.8164 29.6269 32.995C29.5253 33.3483 29.396 33.6878 29.2805 34.0157C29.0279 34.6587 28.7411 35.2877 28.4215 35.9001C27.792 37.0976 27.075 38.2469 26.2761 39.3387C26.1918 39.4519 26.0686 39.5299 25.9303 39.5579C25.7919 39.5858 25.6481 39.5617 25.5265 39.4902C25.4048 39.4186 25.3139 39.3046 25.2711 39.1701C25.2283 39.0356 25.2367 38.8901 25.2946 38.7614V38.7475C25.8373 37.5744 26.3639 36.3712 26.8234 35.1796C27.0543 34.5838 27.2599 33.9811 27.4354 33.3899C27.5185 33.0943 27.5924 32.801 27.6501 32.5147C27.6802 32.3715 27.7009 32.2306 27.7217 32.0921L27.7448 31.8865L27.7679 31.6556C27.8857 30.3763 27.955 29.0784 28.0196 27.7783C28.0843 26.4781 28.1143 25.1665 28.1513 23.8779V23.8663C28.1562 23.5601 28.2825 23.2683 28.5025 23.0553C28.7225 22.8422 29.0182 22.7252 29.3244 22.7301C29.6306 22.735 29.9224 22.8614 30.1354 23.0814C30.3485 23.3014 30.4655 23.597 30.4606 23.9033L30.4583 23.8963Z" fill="#B55B52"/>
<path d="M29.7055 22.2082C26.8696 23.0373 27.2345 28.1963 27.2345 28.1963L31.2666 29.2816C31.2666 29.2816 31.9363 25.5036 31.8762 24.148C31.8162 22.7394 31.2689 21.7533 29.7055 22.2082Z" fill="#407BFF"/>
<path d="M25.595 38.4635L24.1748 39.6712L26.1654 40.4841C26.1654 40.4841 26.782 39.5442 26.4957 38.6528L25.595 38.4635Z" fill="#B55B52"/>
<path d="M24.4267 41.5141L25.3343 41.6272C25.4351 41.6398 25.5373 41.6188 25.6249 41.5675C25.7126 41.5161 25.7809 41.4373 25.8192 41.3432L26.1656 40.4841L24.175 39.6712L24.0249 41.0037C24.0112 41.1245 24.0457 41.2459 24.121 41.3415C24.1962 41.437 24.3061 41.499 24.4267 41.5141Z" fill="#B55B52"/>
<path d="M28.7888 23.5499C28.6618 28.7228 29.8511 32.4985 29.8649 35.8701L39.0075 36.0595C38.9405 32.6833 38.9682 30.4802 40.4208 24.4298C40.4839 24.1663 40.4914 23.8924 40.4428 23.6259C40.3942 23.3593 40.2905 23.1057 40.1384 22.8815C39.9863 22.6572 39.7891 22.4671 39.5594 22.3234C39.3296 22.1796 39.0725 22.0853 38.8043 22.0466C38.257 21.9657 37.6496 21.8895 37.033 21.848C35.6513 21.7199 34.2622 21.6906 32.8763 21.7602C31.9017 21.8295 30.8533 21.9727 30.1051 22.0858C29.7497 22.1387 29.4238 22.3138 29.1835 22.581C28.9433 22.8483 28.8037 23.1909 28.7888 23.5499Z" fill="#407BFF"/>
<path d="M37.3106 28.3302L34.5995 28.3117C34.5725 28.3129 34.5455 28.3082 34.5205 28.298C34.4955 28.2878 34.473 28.2722 34.4546 28.2525C34.4362 28.2327 34.4222 28.2092 34.4138 28.1836C34.4053 28.1579 34.4024 28.1307 34.4055 28.1039L34.5556 26.8199C34.5654 26.7626 34.595 26.7106 34.6394 26.673C34.6837 26.6354 34.7399 26.6147 34.7981 26.6144L37.5069 26.6329C37.5338 26.6313 37.5606 26.6357 37.5857 26.6457C37.6107 26.6556 37.6332 26.6709 37.6517 26.6905C37.6702 26.7101 37.6841 26.7335 37.6926 26.759C37.7011 26.7846 37.7039 26.8117 37.7009 26.8384L37.5508 28.1247C37.5415 28.1818 37.5123 28.2338 37.4683 28.2714C37.4243 28.309 37.3685 28.3299 37.3106 28.3302Z" fill="white"/>
<path opacity="0.4" d="M32.8904 21.7625C32.8904 21.7625 31.3986 22.8063 32.9758 25.4251C34.2708 24.1655 35.628 22.9716 37.0425 21.848L32.8904 21.7625Z" fill="white"/>
<path d="M36.7288 17.1647C36.4401 18.4949 36.126 20.9381 37.0428 21.848C35.6012 22.4158 34.272 23.2353 33.117 24.2681C32.1032 22.4068 32.8861 21.7602 32.8861 21.7602C34.3825 21.4369 34.3687 20.3308 34.1308 19.2869L36.7288 17.1647Z" fill="#B55B52"/>
<path opacity="0.2" d="M36.4464 17.3956C36.4104 18.1904 36.2049 18.9683 35.8437 19.6772C35.5919 20.1645 34.9199 20.37 34.2433 20.4093C34.2656 20.0318 34.229 19.6531 34.1348 19.2869L36.4464 17.3956Z" fill="black"/>
<path d="M38.8922 15.5366C38.1994 17.6658 37.9684 18.5803 36.5828 19.4117C34.516 20.661 32.052 19.3562 32.0843 17.0677C32.1166 15.0078 33.239 11.8741 35.5644 11.5531C36.0794 11.4785 36.6049 11.537 37.0908 11.723C37.5768 11.909 38.0071 12.2163 38.3406 12.6156C38.6742 13.015 38.9 13.493 38.9966 14.0043C39.0931 14.5156 39.0572 15.0431 38.8922 15.5366Z" fill="#B55B52"/>
<path d="M33.2456 12.74C34.4003 13.0656 37.213 13.3081 37.7765 12.971C37.2476 13.7838 37.7511 16.0054 38.5686 16.5435C39.6701 15.659 39.9149 13.5206 38.8965 12.4606C37.8781 11.4006 34.6589 10.1328 33.2456 12.74Z" fill="#263238"/>
<path d="M39.2157 16.8391C39.1428 17.0419 39.03 17.2282 38.8841 17.3868C38.7381 17.5454 38.5619 17.6733 38.3658 17.7628C37.8439 17.9937 37.4975 17.5503 37.5714 17.0123C37.6384 16.5296 37.9917 15.8253 38.5506 15.8161C38.6712 15.8177 38.7895 15.8491 38.8951 15.9073C39.0008 15.9656 39.0904 16.049 39.1561 16.1501C39.2219 16.2512 39.2617 16.367 39.2721 16.4871C39.2825 16.6073 39.2631 16.7282 39.2157 16.8391Z" fill="#B55B52"/>
<path d="M39.1555 35.526L39.5527 36.3551C39.5827 36.4174 39.5065 36.4821 39.4003 36.4798L29.8097 36.2788C29.7289 36.2788 29.6619 36.235 29.6573 36.1819L29.5903 35.362C29.5903 35.3066 29.6596 35.2604 29.7497 35.2604L39.01 35.4544C39.0384 35.4527 39.0667 35.4584 39.0922 35.471C39.1177 35.4835 39.1395 35.5025 39.1555 35.526Z" fill="#263238"/>
<path d="M37.8926 36.5352H38.1397C38.1882 36.5352 38.2274 36.5098 38.2251 36.4798L38.1305 35.4129C38.1305 35.3828 38.0843 35.3551 38.0358 35.3551H37.7864C37.7379 35.3551 37.7009 35.3782 37.7032 35.4106L37.7956 36.4752C37.8002 36.5098 37.8418 36.5352 37.8926 36.5352Z" fill="#407BFF"/>
<path d="M30.5048 36.3828H30.7542C30.8027 36.3828 30.842 36.3597 30.8397 36.3274L30.745 35.2605C30.745 35.2304 30.6988 35.205 30.6503 35.2027H30.4009C30.3524 35.2027 30.3131 35.2258 30.3178 35.2582L30.4101 36.3227C30.4147 36.3551 30.4563 36.3805 30.5048 36.3828Z" fill="#407BFF"/>
<path d="M34.1974 36.459H34.4468C34.4953 36.459 34.5346 36.4359 34.5323 36.4036L34.4376 35.339C34.4376 35.3066 34.3914 35.2812 34.3429 35.2812H34.0935C34.045 35.2812 34.008 35.3066 34.0104 35.3367L34.1027 36.4036C34.1073 36.4313 34.1489 36.459 34.1974 36.459Z" fill="#407BFF"/>
<path d="M35.5692 15.3588C35.523 15.5343 35.3937 15.6544 35.2782 15.6244C35.1628 15.5944 35.1073 15.4281 35.1512 15.2526C35.1951 15.0771 35.3267 14.957 35.4422 14.987C35.5577 15.017 35.6131 15.1833 35.5692 15.3588Z" fill="#263238"/>
<path d="M33.5781 14.8508C33.5342 15.0286 33.4049 15.1463 33.2894 15.1163C33.174 15.0863 33.1162 14.9223 33.1624 14.7445C33.2086 14.5667 33.3356 14.4512 33.4511 14.479C33.5666 14.5067 33.6243 14.6752 33.5781 14.8508Z" fill="#263238"/>
<path d="M33.5 14.502L33.1074 14.2711C33.1074 14.2711 33.2414 14.6591 33.5 14.502Z" fill="#263238"/>
<path d="M34.0196 15.2872C33.7611 15.6491 33.4542 15.9739 33.1074 16.2525C33.1806 16.3392 33.2718 16.409 33.3747 16.4568C33.4776 16.5047 33.5897 16.5295 33.7032 16.5296L34.0196 15.2872Z" fill="#A02724"/>
<path d="M34.1305 17.2201C34.1224 17.2131 34.1164 17.2041 34.1131 17.1939C34.1098 17.1837 34.1095 17.1728 34.112 17.1624C34.1141 17.1557 34.1176 17.1495 34.1221 17.1441C34.1266 17.1388 34.1321 17.1343 34.1383 17.1311C34.1445 17.1279 34.1513 17.1259 34.1583 17.1254C34.1653 17.1248 34.1723 17.1256 34.179 17.1277C34.3947 17.1953 34.6233 17.2113 34.8463 17.1744C35.0693 17.1375 35.2806 17.0488 35.463 16.9153C35.4737 16.9061 35.4876 16.9015 35.5017 16.9026C35.5158 16.9037 35.5289 16.9103 35.538 16.9211C35.5472 16.9318 35.5518 16.9457 35.5507 16.9598C35.5496 16.9739 35.543 16.9869 35.5323 16.9961C35.337 17.1434 35.1091 17.2414 34.8678 17.2816C34.6266 17.3218 34.3792 17.3031 34.1467 17.227L34.1305 17.2201Z" fill="#263238"/>
<path d="M36.6545 14.5482C36.6405 14.5357 36.6288 14.5209 36.6199 14.5044C36.5722 14.3792 36.4954 14.2672 36.3958 14.1776C36.2962 14.0881 36.1767 14.0236 36.0472 13.9894C36.0193 13.9845 35.9946 13.9687 35.9783 13.9456C35.9621 13.9224 35.9557 13.8937 35.9606 13.8658C35.9655 13.838 35.9813 13.8132 36.0044 13.797C36.0276 13.7807 36.0563 13.7743 36.0841 13.7792C36.2489 13.82 36.4014 13.8995 36.5292 14.0112C36.6569 14.1229 36.7561 14.2634 36.8185 14.4212C36.8267 14.4429 36.8277 14.4667 36.8213 14.489C36.815 14.5113 36.8017 14.531 36.7834 14.5452C36.765 14.5594 36.7426 14.5674 36.7195 14.5679C36.6963 14.5685 36.6735 14.5616 36.6545 14.5482Z" fill="#263238"/>
<path d="M33.186 13.7284L33.1722 13.7146C33.1523 13.6947 33.1411 13.6677 33.1411 13.6395C33.1411 13.6114 33.1523 13.5844 33.1722 13.5645C33.2941 13.4501 33.4413 13.366 33.6017 13.319C33.7622 13.2721 33.9315 13.2636 34.0959 13.2943C34.1096 13.2978 34.1225 13.304 34.1338 13.3125C34.1452 13.3211 34.1546 13.3318 34.1617 13.344C34.1688 13.3563 34.1734 13.3699 34.1752 13.3839C34.177 13.398 34.1759 13.4123 34.1721 13.4259C34.165 13.4532 34.1474 13.4765 34.1232 13.4908C34.099 13.5051 34.07 13.5091 34.0428 13.5021C33.911 13.4773 33.7753 13.4842 33.6467 13.5224C33.5182 13.5606 33.4006 13.6288 33.3038 13.7215C33.287 13.7342 33.2669 13.7416 33.246 13.7428C33.225 13.7441 33.2041 13.7391 33.186 13.7284Z" fill="#263238"/>
<path d="M40.4189 23.6792C41.0909 24.5683 41.719 25.4643 42.3287 26.395C42.6312 26.8569 42.9314 27.3187 43.2155 27.8175C43.5214 28.322 43.796 28.8449 44.0376 29.3832C44.1107 29.5511 44.1739 29.723 44.227 29.8982C44.2654 30.0334 44.2917 30.1717 44.3055 30.3116C44.3093 30.3677 44.3093 30.424 44.3055 30.4802V30.5841C44.3013 30.6299 44.2943 30.6754 44.2847 30.7203L44.2685 30.7919V30.8243V30.8497L44.25 30.9005C44.1415 31.1776 44.0561 31.457 43.9267 31.7249C43.6926 32.2739 43.4113 32.8016 43.0862 33.3021C42.7513 33.8075 42.3592 34.2724 41.9176 34.6877C41.6927 34.8987 41.451 35.091 41.1948 35.2628C41.0632 35.3482 40.9293 35.4313 40.7907 35.5075L40.5713 35.6138C40.4882 35.6507 40.4281 35.6761 40.3081 35.72L39.8693 34.667C39.9005 34.6364 39.9337 34.6078 39.9686 34.5815L40.0956 34.4707C40.181 34.3945 40.2642 34.3113 40.345 34.2259C40.5095 34.0494 40.6637 33.8636 40.8069 33.6693C41.0889 33.2727 41.3347 32.8515 41.5412 32.4108C41.6382 32.1798 41.7444 31.9627 41.8253 31.718C41.9061 31.4732 41.9962 31.2561 42.0701 31.0252C42.144 30.7942 42.2017 30.5402 42.2733 30.3V30.2562V30.2331V30.2539V30.3C42.2733 30.3278 42.2617 30.3693 42.2594 30.3855C42.2583 30.4032 42.2583 30.4209 42.2594 30.4386V30.5056C42.2594 30.5587 42.2594 30.5425 42.2594 30.5194C42.2594 30.4963 42.1948 30.3716 42.1463 30.2746C41.9361 29.8797 41.6544 29.4248 41.3657 28.9907C41.0771 28.5565 40.7768 28.1108 40.4697 27.6744C39.8577 26.7991 39.2273 25.9147 38.6084 25.0464L40.4189 23.6792Z" fill="#B55B52"/>
<path d="M40.9198 35.4475L39.1394 36.7061L38.3403 34.8863C38.3403 34.8863 39.4211 34.3067 40.2732 34.6947L40.9198 35.4475Z" fill="#B55B52"/>
<path d="M37.8995 36.8562L37.4538 36.235C37.3692 36.1152 37.3346 35.9671 37.3575 35.8222C37.3803 35.6773 37.4588 35.547 37.5762 35.459L38.3405 34.8863L39.1396 36.7061L38.65 37.0086C38.5289 37.083 38.384 37.1086 38.2447 37.0803C38.1054 37.052 37.982 36.9719 37.8995 36.8562Z" fill="#B55B52"/>
<path d="M36.8554 23.1296C36.2504 25.5336 39.9822 29.6488 39.9822 29.6488L43.1206 26.3904C43.1206 26.3904 41.6865 23.3282 39.8136 22.3676C38.5066 21.6979 37.1233 22.0697 36.8554 23.1296Z" fill="#407BFF"/>
<path d="M35.4902 15.0101L35.0977 14.7792C35.0977 14.7792 35.2293 15.1671 35.4902 15.0101Z" fill="#263238"/>
<path d="M31.4791 29.5518C31.4622 29.5517 31.4458 29.5466 31.4318 29.5372C31.4178 29.5277 31.407 29.5143 31.4006 29.4987C31.3931 29.4782 31.394 29.4555 31.403 29.4357C31.4121 29.4158 31.4287 29.4003 31.4491 29.3925L31.8093 29.2539C32.1468 29.1293 32.4381 28.9047 32.6445 28.61C32.8508 28.3154 32.9623 27.9648 32.964 27.6051L32.9894 24.2289C32.9967 23.9718 32.9155 23.7201 32.7594 23.5157C32.6034 23.3114 32.3818 23.1668 32.1319 23.1062C31.882 23.0457 31.6189 23.0727 31.3866 23.1829C31.1542 23.2931 30.9668 23.4797 30.8556 23.7116L29.2945 26.7137C29.1268 27.0306 29.0591 27.391 29.1003 27.7472C29.1415 28.1034 29.2897 28.4387 29.5254 28.7089L29.7794 28.9976C29.788 29.0055 29.7948 29.0152 29.7994 29.0259C29.804 29.0366 29.8062 29.0482 29.806 29.0599C29.8059 29.0715 29.8032 29.083 29.7983 29.0936C29.7934 29.1042 29.7863 29.1136 29.7775 29.1213C29.7687 29.1289 29.7584 29.1346 29.7472 29.1381C29.7361 29.1415 29.7243 29.1425 29.7127 29.1411C29.7012 29.1396 29.69 29.1358 29.68 29.1298C29.67 29.1238 29.6614 29.1157 29.6547 29.1061L29.4007 28.7921C29.1406 28.4984 28.9763 28.1324 28.9297 27.7428C28.8831 27.3533 28.9563 26.9589 29.1398 26.6121L30.7009 23.61C30.8343 23.3538 31.0501 23.1499 31.3135 23.0313C31.5769 22.9127 31.8725 22.8862 32.1528 22.956C32.4331 23.0259 32.6818 23.1881 32.8586 23.4165C33.0355 23.6449 33.1304 23.9261 33.1279 24.215L33.1025 27.5912C33.1007 27.9829 32.98 28.3647 32.7566 28.6863C32.5331 29.0079 32.2173 29.2542 31.8509 29.3925L31.4906 29.5287L31.4791 29.5518Z" fill="#263238"/>
<path d="M33.0471 24.9817C33.0256 24.9812 33.0052 24.9725 32.9897 24.9576C32.9743 24.9426 32.9651 24.9223 32.964 24.9009C32.9312 24.634 32.8184 24.3834 32.6404 24.182C32.4623 23.9805 32.2274 23.8378 31.9666 23.7725C31.7058 23.7073 31.4314 23.7226 31.1794 23.8164C30.9275 23.9102 30.7099 24.0782 30.5554 24.2982C30.5501 24.3077 30.5429 24.3161 30.5344 24.3229C30.5258 24.3297 30.516 24.3348 30.5055 24.3378C30.495 24.3408 30.484 24.3417 30.4731 24.3404C30.4623 24.3392 30.4518 24.3358 30.4422 24.3305C30.4327 24.3252 30.4242 24.318 30.4175 24.3095C30.4107 24.3009 30.4056 24.2911 30.4026 24.2806C30.3996 24.2701 30.3987 24.2591 30.4 24.2482C30.4012 24.2374 30.4046 24.2269 30.4099 24.2173C30.5817 23.9634 30.8274 23.7683 31.1138 23.6586C31.4001 23.5488 31.7132 23.5297 32.0108 23.6038C32.3083 23.6779 32.576 23.8416 32.7774 24.0727C32.9789 24.3039 33.1045 24.5914 33.1372 24.8963C33.1372 24.9182 33.1288 24.9392 33.1138 24.9551C33.0988 24.971 33.0782 24.9805 33.0564 24.9817H33.0471Z" fill="#263238"/>
<path d="M32.147 23.1366C32.1333 23.1364 32.1199 23.133 32.1078 23.1265C32.0958 23.1201 32.0854 23.1109 32.0777 23.0996C32.0355 23.006 32.0137 22.9044 32.0137 22.8017C32.0137 22.699 32.0355 22.5975 32.0777 22.5038C32.1376 22.3176 32.2387 22.1472 32.3734 22.0053C32.5081 21.8634 32.673 21.7536 32.8559 21.684C32.8661 21.68 32.8769 21.6782 32.8878 21.6787C32.8986 21.6791 32.9093 21.6818 32.9191 21.6866C32.9288 21.6914 32.9375 21.6981 32.9445 21.7064C32.9515 21.7147 32.9568 21.7244 32.9598 21.7348C32.9665 21.7553 32.965 21.7777 32.9555 21.7971C32.946 21.8165 32.9293 21.8314 32.909 21.8387C32.7524 21.903 32.6116 22.0005 32.4964 22.1245C32.3812 22.2485 32.2942 22.396 32.2417 22.5569C32.2072 22.6285 32.1872 22.7061 32.1829 22.7853C32.1785 22.8646 32.1899 22.9439 32.2163 23.0188C32.2222 23.028 32.2263 23.0384 32.2283 23.0492C32.2302 23.06 32.23 23.0711 32.2277 23.0818C32.2253 23.0926 32.2208 23.1027 32.2145 23.1117C32.2082 23.1207 32.2001 23.1284 32.1908 23.1343C32.1766 23.1385 32.1616 23.1393 32.147 23.1366Z" fill="#263238"/>
<path d="M31.2902 29.4248C31.251 29.5749 31.2902 29.7181 31.4011 29.7435C31.5119 29.7689 31.6135 29.665 31.6505 29.5126C31.6874 29.3602 31.6366 29.217 31.5373 29.1939C31.438 29.1708 31.3272 29.2724 31.2902 29.4248Z" fill="#263238"/>
<path d="M37.8437 25.4366C37.9176 25.7853 38.167 26.0255 38.3956 25.977C38.6242 25.9285 38.7489 25.6029 38.6727 25.2565C38.5965 24.9101 38.3494 24.6653 38.1208 24.7161C37.8922 24.7669 37.7675 25.0972 37.8437 25.4366Z" fill="#263238"/>
<path d="M38.5666 25.3281C38.5559 25.3284 38.5454 25.3266 38.5354 25.3228C38.5255 25.3191 38.5164 25.3134 38.5087 25.3061C38.501 25.2988 38.4948 25.29 38.4904 25.2803C38.4861 25.2706 38.4837 25.2602 38.4834 25.2496C38.4349 23.9725 37.95 22.386 37.0055 21.9172C36.986 21.9073 36.9711 21.8902 36.9642 21.8694C36.9573 21.8487 36.9589 21.826 36.9685 21.8064C36.9732 21.7965 36.9798 21.7877 36.988 21.7804C36.9961 21.7732 37.0057 21.7677 37.016 21.7642C37.0264 21.7608 37.0373 21.7595 37.0482 21.7604C37.0591 21.7613 37.0697 21.7643 37.0794 21.7694C38.0908 22.2706 38.5966 23.8755 38.6474 25.2334C38.6483 25.2443 38.647 25.2553 38.6435 25.2656C38.64 25.2759 38.6344 25.2854 38.627 25.2935C38.6196 25.3015 38.6106 25.3079 38.6006 25.3123C38.5906 25.3167 38.5798 25.3189 38.5689 25.3189L38.5666 25.3281Z" fill="#263238"/>
<path d="M37.5967 25.4667C37.6452 25.7646 37.86 25.977 38.077 25.9424C38.2941 25.9077 38.4327 25.6376 38.3842 25.3373C38.3357 25.0371 38.1186 24.827 37.9015 24.8616C37.6845 24.8963 37.5482 25.1665 37.5967 25.4667Z" fill="white"/>
<path d="M37.5782 25.4921C37.6475 25.8616 37.8415 26.1341 38.0101 26.1017C38.1787 26.0694 38.2549 25.7461 38.1856 25.3766C38.1163 25.0071 37.9223 24.7346 37.7537 24.7669C37.5852 24.7993 37.5067 25.1226 37.5782 25.4921Z" fill="#263238"/>
<path d="M29.5438 28.9884C29.5069 29.1408 29.5577 29.284 29.657 29.3071C29.7563 29.3301 29.8671 29.2308 29.9064 29.0761C29.9456 28.9214 29.8925 28.7828 29.7932 28.7574C29.6939 28.732 29.5831 28.8383 29.5438 28.9884Z" fill="#263238"/>
<path d="M54.8401 10.1836C53.3783 10.4446 53.1936 10.3106 53.1751 9.2599C53.1566 8.20917 52.6255 6.4564 53.3645 5.90678C53.4152 5.85869 53.4776 5.82473 53.5455 5.80831C53.6135 5.79189 53.6845 5.79359 53.7516 5.81322C53.8187 5.83285 53.8794 5.86974 53.9278 5.9202C53.9762 5.97065 54.0104 6.03292 54.0272 6.10077C54.0723 5.98551 54.1602 5.89211 54.2725 5.84005C54.3848 5.78799 54.5128 5.78129 54.63 5.82134C54.66 5.60426 54.6946 5.04772 55.0918 4.89761C55.489 4.74751 55.8539 5.10776 55.8539 5.10776C55.8539 5.10776 55.8239 4.25101 56.4012 4.33414C56.5736 4.36168 56.7336 4.44054 56.8605 4.56041C56.9874 4.68029 57.0752 4.83563 57.1125 5.00615C57.1125 5.00615 57.445 4.5212 57.8953 4.71287C58.3456 4.90454 58.251 5.46801 58.251 5.46801C58.251 5.46801 58.729 5.23708 59.0846 5.49804C59.4402 5.75899 59.1816 6.17697 59.1816 6.17697C59.1816 6.17697 59.5049 5.34562 60.1215 5.80517C60.6757 6.22085 60.1723 6.87208 60.1723 6.87208C60.1723 6.87208 60.782 6.77278 60.9298 7.07992C61.4286 8.12603 59.528 9.29454 59.4657 11.0612C56.5467 12.165 54.8401 10.1836 54.8401 10.1836Z" fill="#263238"/>
<path d="M44.3053 38.2602L43.3307 38.0801L42.0421 39.311C41.972 39.3778 41.9167 39.4585 41.8797 39.548C41.8427 39.6375 41.8249 39.7338 41.8274 39.8306L41.8459 40.8374C41.8481 41.0096 41.9144 41.1748 42.0318 41.3007C42.1492 41.4266 42.3093 41.5044 42.4809 41.5187L42.9289 41.5579C43.0919 41.5733 43.2551 41.5305 43.3895 41.4371C43.5239 41.3437 43.6209 41.2057 43.6633 41.0476L43.8942 40.2255C43.8942 40.2255 45.1666 38.7221 44.3053 38.2602Z" fill="#FFB573"/>
<path d="M54.1475 19.8458C53.4939 21.5385 52.8427 23.2382 52.2146 24.9424C51.5864 26.6467 50.9629 28.3579 50.3787 30.0414L50.2747 30.3532L50.2032 30.5564C50.1754 30.6326 50.1477 30.7111 50.1223 30.7711C50.0138 31.046 49.9053 31.2723 49.7967 31.5009C49.5796 31.9627 49.3603 32.3761 49.1386 32.7941C48.6929 33.6255 48.2333 34.4268 47.7691 35.2258C46.8454 36.8262 45.9217 38.3896 44.9656 39.9761L42.0259 38.1471C42.9958 36.6391 43.9311 35.0826 44.8271 33.5285C45.2682 32.7479 45.7023 31.9651 46.1064 31.1891C46.3073 30.8012 46.5013 30.4132 46.6722 30.0345C46.753 29.852 46.8339 29.665 46.887 29.5126C46.9055 29.4687 46.9124 29.4387 46.9239 29.4087L46.9609 29.2886L47.0671 28.9514C47.6237 27.1779 48.2079 25.4643 48.7714 23.7254L50.4618 18.5272L54.1475 19.8458Z" fill="#407BFF"/>
<path opacity="0.6" d="M54.1475 19.8458C53.4939 21.5385 52.8427 23.2382 52.2146 24.9424C51.5864 26.6467 50.9629 28.3579 50.3787 30.0414L50.2747 30.3532L50.2032 30.5564C50.1754 30.6326 50.1477 30.7111 50.1223 30.7711C50.0138 31.046 49.9053 31.2723 49.7967 31.5009C49.5796 31.9627 49.3603 32.3761 49.1386 32.7941C48.6929 33.6255 48.2333 34.4268 47.7691 35.2258C46.8454 36.8262 45.9217 38.3896 44.9656 39.9761L42.0259 38.1471C42.9958 36.6391 43.9311 35.0826 44.8271 33.5285C45.2682 32.7479 45.7023 31.9651 46.1064 31.1891C46.3073 30.8012 46.5013 30.4132 46.6722 30.0345C46.753 29.852 46.8339 29.665 46.887 29.5126C46.9055 29.4687 46.9124 29.4387 46.9239 29.4087L46.9609 29.2886L47.0671 28.9514C47.6237 27.1779 48.2079 25.4643 48.7714 23.7254L50.4618 18.5272L54.1475 19.8458Z" fill="white"/>
<path d="M45.34 81.6545L43.2686 81.7561L44.2477 76.3616L46.2175 76.8142L45.34 81.6545Z" fill="#FFB573"/>
<path d="M60.2004 81.733H58.1289L58.1358 76.9366H60.205L60.2004 81.733Z" fill="#FFB573"/>
<path d="M57.9325 81.4929H60.4566C60.4972 81.4922 60.5367 81.5061 60.568 81.5319C60.5993 81.5577 60.6204 81.5938 60.6275 81.6337L60.9601 83.4812C60.9674 83.5269 60.9648 83.5736 60.9522 83.6182C60.9397 83.6628 60.9176 83.7041 60.8875 83.7393C60.8574 83.7744 60.82 83.8026 60.7779 83.8219C60.7358 83.8411 60.69 83.8509 60.6437 83.8507C59.8308 83.8368 59.2396 83.7883 58.2166 83.7883C57.5885 83.7883 55.6763 83.853 54.8173 83.853C53.9582 83.853 53.8705 82.9939 54.2284 82.9154C55.8449 82.5667 57.0619 82.0864 57.5908 81.6268C57.6845 81.5419 57.8061 81.4942 57.9325 81.4929Z" fill="#263238"/>
<path opacity="0.2" d="M44.2475 76.3639L43.7949 78.8579L45.7648 79.3106L46.2174 76.8165L44.2475 76.3639Z" fill="black"/>
<path opacity="0.2" d="M60.2048 76.9366H58.1333V79.4076H60.2048V76.9366Z" fill="black"/>
<path d="M61.8723 19.7858C60.2558 27.0578 60.6853 34.2351 60.5121 35.7893L49.4574 35.0595C48.3028 26.2842 49.5914 20.6864 50.3234 18.3909C50.4424 18.012 50.6675 17.6752 50.972 17.4202C51.2765 17.1652 51.6476 17.0028 52.0415 16.9522C53.6854 16.7721 55.3408 16.7203 56.9927 16.7975C58.1111 16.8644 59.221 17.0329 60.3089 17.3009C60.8454 17.4237 61.3112 17.7543 61.6043 18.2201C61.8974 18.6859 61.9938 19.249 61.8723 19.7858Z" fill="#407BFF"/>
<path d="M58.5402 11.8694C58.1753 13.2389 57.7435 15.6636 58.4386 16.8899C58.5471 17.0815 58.3393 17.2455 58.33 17.4672C58.3046 18.1461 57.3855 18.3494 55.7413 18.3586C54.0971 18.3678 53.3927 17.682 53.8407 17.0354C53.9094 16.9368 54.0138 16.8689 54.1317 16.846C55.672 16.5019 55.702 15.2941 55.4919 14.1418L58.5402 11.8694Z" fill="#FFB573"/>
<path opacity="0.4" d="M55.623 17.9822C56.055 18.5828 56.3289 19.2825 56.4198 20.0167C58.0617 19.2454 58.8445 17.3725 58.8445 17.3725L58.3503 16.8437C58.3503 16.8437 56.526 17.1878 55.623 17.9822Z" fill="black"/>
<path opacity="0.4" d="M55.4615 17.9891C54.8569 18.4812 54.3468 19.079 53.9558 19.7534C52.8081 19.0422 53.1868 17.0146 53.1868 17.0146L54.1221 16.8298C54.1221 16.8298 54.5401 17.2155 55.4615 17.9891Z" fill="black"/>
<path d="M55.5354 17.9383L55.1821 17.9729L54.584 18.3678C54.5458 18.6057 54.5881 18.8495 54.7041 19.0606C55.0515 19.1285 55.406 19.1525 55.7594 19.1322C55.9965 19.0177 56.1855 18.823 56.2929 18.5826L55.8541 18.0214L55.5354 17.9383Z" fill="#263238"/>
<path d="M55.5356 17.9383C55.9793 18.4936 56.3195 19.124 56.5402 19.7996C58.1821 19.0283 59.1382 17.1855 59.1382 17.1855L58.3461 16.4927C58.3461 16.4927 56.4386 17.1485 55.5356 17.9383Z" fill="#407BFF"/>
<path d="M55.5353 17.9383C54.9016 18.3381 54.3472 18.8518 53.9003 19.4532C52.7457 18.7443 53.1867 16.8345 53.1867 16.8345L54.122 16.6497C54.122 16.6497 54.6162 17.1693 55.5353 17.9383Z" fill="#407BFF"/>
<path opacity="0.2" d="M57.2974 12.7955L55.4961 14.1395C55.5507 14.4173 55.5808 14.6993 55.5862 14.9824C56.2351 14.9339 57.168 14.2896 57.2812 13.6153C57.3354 13.3452 57.3409 13.0675 57.2974 12.7955Z" fill="black"/>
<path d="M58.8701 9.60631C58.6092 11.6454 58.5607 12.8393 57.4568 13.8347C55.7964 15.3103 53.3324 14.2065 52.9791 12.1304C52.6604 10.2622 53.1407 7.24157 55.1983 6.56033C55.6513 6.40763 56.1359 6.37331 56.6059 6.46064C57.0759 6.54796 57.5158 6.75403 57.8837 7.05926C58.2517 7.36449 58.5355 7.75874 58.7081 8.20454C58.8807 8.65033 58.9365 9.13288 58.8701 9.60631Z" fill="#FFB573"/>
<path d="M58.3716 11.4491C57.9097 11.0034 58.1984 8.86964 58.4316 8.25767C57.277 8.36852 53.5451 8.3639 53.686 7.33395C53.8269 6.30399 55.1848 5.42876 57.404 6.15158C59.2515 6.75431 59.7133 7.67572 59.7133 8.42856C59.741 9.9758 58.3716 11.4491 58.3716 11.4491Z" fill="#263238"/>
<path d="M59.586 11.4722C59.3666 11.8914 58.992 12.208 58.5422 12.3544C57.9533 12.5368 57.6623 11.9941 57.8286 11.4122C57.9764 10.8903 58.4636 10.1629 59.0525 10.2368C59.6414 10.3106 59.8562 10.9526 59.586 11.4722Z" fill="#FFB573"/>
<path d="M43.1206 78.2252L46.5453 78.9803C46.5453 78.9803 49.8753 65.9304 50.8637 59.5521C51.1662 57.6123 51.8683 54.8434 52.508 51.9314C53.3139 48.2596 54.3277 44.2875 55.159 41.1769C56.0366 37.9 56.6878 35.5445 56.6878 35.5445L49.4574 35.0665C49.4574 35.0665 46.0927 52.1346 45.4138 58.4182C44.7048 64.949 43.1206 78.2252 43.1206 78.2252Z" fill="#263238"/>
<path opacity="0.2" d="M52.508 51.9268C53.3139 48.2549 54.3277 44.2829 55.1591 41.1723L54.3993 39.5558C52.605 41.6988 52.1454 48.3288 52.508 51.9268Z" fill="black"/>
<path d="M52.9028 35.2882C52.9028 35.2882 54.3993 52.7304 54.9812 58.7692C55.6278 65.3831 57.3621 78.9318 57.3621 78.9318H60.8399C60.8399 78.9318 60.997 64.5033 60.3781 58.1157C60.2903 45.5577 60.5097 35.7916 60.5097 35.7916L52.9028 35.2882Z" fill="#263238"/>
<path d="M56.9188 79.0127H61.385V77.6779L56.7456 77.4216L56.9188 79.0127Z" fill="#407BFF"/>
<path d="M42.6729 78.2113L46.7534 79.112L47.0444 77.7933L42.7722 76.7172L42.6729 78.2113Z" fill="#407BFF"/>
<path d="M55.8892 9.97118C55.8892 10.1374 55.7806 10.2668 55.6721 10.2598C55.5635 10.2529 55.4827 10.112 55.4943 9.94577C55.5058 9.7795 55.6028 9.65018 55.7113 9.65711C55.8199 9.66404 55.9007 9.80491 55.8892 9.97118Z" fill="#263238"/>
<path d="M54.0044 9.85571C54.0044 10.022 53.8959 10.1513 53.7873 10.1444C53.6788 10.1375 53.598 9.99658 53.6095 9.83031C53.621 9.66404 53.718 9.53472 53.8266 9.54165C53.9351 9.54858 54.0159 9.68021 54.0044 9.85571Z" fill="#263238"/>
<path d="M54.4364 9.97118C54.2036 10.4666 53.9045 10.9281 53.5474 11.3429C53.8222 11.6385 54.3325 11.5461 54.3325 11.5461L54.4364 9.97118Z" fill="#ED893E"/>
<path d="M55.0064 12.038C55.1936 12.0275 55.3766 11.9791 55.5445 11.8957C55.7124 11.8123 55.8617 11.6958 55.9832 11.5531C55.9918 11.544 55.9966 11.5321 55.9966 11.5196C55.9966 11.5071 55.9918 11.4951 55.9832 11.4861C55.9738 11.4773 55.9615 11.4725 55.9486 11.4725C55.9357 11.4725 55.9234 11.4773 55.914 11.4861C55.7768 11.6426 55.6049 11.7646 55.4119 11.8425C55.219 11.9203 55.0105 11.9517 54.8032 11.9341C54.7968 11.9335 54.7904 11.9341 54.7842 11.936C54.7781 11.9378 54.7724 11.9409 54.7675 11.945C54.7625 11.9491 54.7585 11.9541 54.7555 11.9597C54.7525 11.9654 54.7506 11.9716 54.7501 11.978C54.7494 11.9911 54.7539 12.0039 54.7625 12.0138C54.7711 12.0237 54.7832 12.0299 54.7962 12.0311C54.8661 12.0376 54.9363 12.04 55.0064 12.038Z" fill="#263238"/>
<path d="M56.3482 9.39386C56.3646 9.39198 56.3803 9.38646 56.3943 9.3777C56.4163 9.3635 56.4317 9.34124 56.4373 9.31573C56.4429 9.29023 56.4383 9.26355 56.4244 9.24145C56.3419 9.10858 56.2289 8.99735 56.0947 8.91701C55.9605 8.83667 55.8091 8.78956 55.653 8.77959C55.6296 8.78319 55.6082 8.79507 55.5928 8.81308C55.5773 8.83108 55.5688 8.85401 55.5688 8.87773C55.5688 8.90145 55.5773 8.92439 55.5928 8.94239C55.6082 8.96039 55.6296 8.97227 55.653 8.97588C55.7763 8.98498 55.8956 9.02323 56.0012 9.08747C56.1068 9.1517 56.1956 9.2401 56.2604 9.34537C56.269 9.36086 56.2818 9.37361 56.2973 9.38219C56.3128 9.39076 56.3305 9.39481 56.3482 9.39386Z" fill="#263238"/>
<path d="M53.0739 9.14675C53.0899 9.14562 53.1054 9.14062 53.1191 9.13217C53.1328 9.12373 53.1442 9.11209 53.1524 9.09825C53.2113 8.99094 53.2947 8.89904 53.3958 8.83002C53.497 8.761 53.6129 8.71682 53.7343 8.70105C53.7601 8.69871 53.7839 8.68666 53.8011 8.66736C53.8182 8.64806 53.8274 8.62295 53.8267 8.59713C53.8249 8.57119 53.8131 8.54699 53.7936 8.52972C53.7742 8.51245 53.7488 8.50349 53.7228 8.50476C53.5678 8.52349 53.4195 8.57921 53.2905 8.66723C53.1615 8.75524 53.0555 8.87297 52.9815 9.0105C52.969 9.03287 52.9659 9.05927 52.9728 9.08393C52.9798 9.10859 52.9962 9.12951 53.0185 9.14213C53.0359 9.14998 53.0554 9.15161 53.0739 9.14675Z" fill="#263238"/>
<path d="M57.2328 81.8531C57.4166 81.8487 57.5994 81.8239 57.7778 81.7792C57.7871 81.7771 57.7956 81.7722 57.8022 81.7652C57.8088 81.7582 57.8131 81.7494 57.8147 81.74C57.8172 81.731 57.8167 81.7214 57.8134 81.7127C57.8101 81.704 57.8041 81.6965 57.7962 81.6915C57.7223 81.643 57.0711 81.2296 56.8356 81.3497C56.8101 81.363 56.7885 81.3829 56.7731 81.4072C56.7577 81.4315 56.749 81.4595 56.7478 81.4882C56.7396 81.5358 56.7436 81.5847 56.7593 81.6303C56.7751 81.6759 56.8021 81.7168 56.8379 81.7492C56.9536 81.8284 57.0931 81.8651 57.2328 81.8531ZM57.6369 81.7099C57.2836 81.7815 57.0134 81.7677 56.9048 81.673C56.8802 81.6511 56.8618 81.6232 56.8512 81.592C56.8407 81.5609 56.8385 81.5275 56.8448 81.4952C56.8448 81.4582 56.8633 81.4444 56.8771 81.4374C56.9995 81.3774 57.3736 81.5529 57.6369 81.7099Z" fill="#407BFF"/>
<path d="M57.7664 81.7815C57.7746 81.7847 57.7836 81.7847 57.7918 81.7815C57.7997 81.7773 57.8062 81.7709 57.8107 81.7632C57.8152 81.7554 57.8174 81.7466 57.8172 81.7376C57.8172 81.7122 57.7918 81.1141 57.5586 80.9178C57.5304 80.8931 57.4973 80.8748 57.4614 80.864C57.4256 80.8533 57.3878 80.8504 57.3507 80.8555C57.3137 80.8556 57.2779 80.8682 57.2489 80.8912C57.22 80.9143 57.1997 80.9465 57.1914 80.9825C57.1383 81.2134 57.5332 81.6753 57.7433 81.7838C57.7511 81.7854 57.7591 81.7846 57.7664 81.7815ZM57.3831 80.9409C57.4242 80.9414 57.4637 80.957 57.4939 80.9848C57.6417 81.1095 57.6948 81.4582 57.711 81.6337C57.5055 81.4721 57.2491 81.128 57.2861 80.9917C57.2861 80.9802 57.2861 80.9502 57.36 80.9432H57.3831V80.9409Z" fill="#407BFF"/>
<path d="M42.9591 80.844L45.3885 81.5367C45.4273 81.5479 45.4609 81.5722 45.4837 81.6055C45.5065 81.6388 45.5169 81.679 45.5132 81.7192L45.3331 83.5828C45.3272 83.6286 45.3115 83.6727 45.287 83.7119C45.2625 83.7511 45.2299 83.7846 45.1913 83.81C45.1527 83.8354 45.1091 83.8522 45.0634 83.8593C45.0177 83.8663 44.9711 83.8634 44.9266 83.8507C44.1484 83.6198 43.5941 83.4096 42.6173 83.1302C42.0123 82.9593 40.0424 82.2526 39.3242 81.7631C38.606 81.2735 39.0286 80.5183 39.3681 80.6569C40.8946 81.2758 41.9684 81.1765 42.6011 80.8878C42.7115 80.8313 42.8383 80.8158 42.9591 80.844Z" fill="#263238"/>
<path d="M42.1853 81.001C42.3638 81.0454 42.5464 81.0709 42.7303 81.0772C42.7402 81.0778 42.75 81.0755 42.7587 81.0706C42.7673 81.0657 42.7743 81.0583 42.7788 81.0495C42.7842 81.0417 42.7872 81.0324 42.7872 81.0229C42.7872 81.0134 42.7842 81.0041 42.7788 80.9964C42.721 80.9317 42.206 80.359 41.9497 80.4075C41.9212 80.4138 41.8947 80.4273 41.8729 80.4467C41.8511 80.4661 41.8346 80.4907 41.825 80.5183C41.805 80.5616 41.796 80.6091 41.7988 80.6566C41.8017 80.7042 41.8162 80.7503 41.8412 80.7908C41.9292 80.8973 42.0503 80.9713 42.1853 81.001ZM42.6148 80.9733C42.2545 80.9456 41.9982 80.8578 41.922 80.7423C41.9064 80.7136 41.8983 80.6815 41.8983 80.6488C41.8983 80.6161 41.9064 80.584 41.922 80.5553C41.9359 80.5183 41.9543 80.5114 41.9705 80.5091C42.1021 80.4791 42.4023 80.7516 42.6148 80.9825V80.9733Z" fill="#407BFF"/>
<path d="M42.7187 81.0749C42.7278 81.0772 42.7373 81.0772 42.7464 81.0749C42.7553 81.0726 42.7635 81.068 42.77 81.0615C42.7765 81.055 42.7811 81.0469 42.7834 81.0379C42.7834 81.0148 42.9265 80.4329 42.758 80.1789C42.7373 80.1479 42.7104 80.1217 42.679 80.1018C42.6476 80.0819 42.6123 80.0688 42.5755 80.0634C42.5397 80.0535 42.5016 80.0558 42.4673 80.07C42.433 80.0842 42.4044 80.1096 42.3862 80.1419C42.2707 80.3498 42.5293 80.8948 42.6979 81.0656C42.704 81.0704 42.7111 81.0736 42.7187 81.0749ZM42.5778 80.1627C42.6173 80.1737 42.6512 80.1993 42.6725 80.2343C42.7834 80.3959 42.7372 80.747 42.7072 80.9271C42.5524 80.7169 42.4046 80.3174 42.4762 80.195C42.4762 80.1835 42.497 80.1581 42.5617 80.1673L42.5778 80.1627Z" fill="#407BFF"/>
<path d="M58.5742 16.7097C58.5496 16.7058 58.5245 16.7075 58.5007 16.7147C58.4769 16.7219 58.455 16.7345 58.4368 16.7514C58.4185 16.7683 58.4043 16.7891 58.3953 16.8123C58.3863 16.8355 58.3827 16.8605 58.3848 16.8852C58.4656 18.123 56.5374 20.3492 56.0755 27.0162C55.8007 31.0713 55.549 43.7148 55.7337 50.2918C55.7364 50.3781 55.7587 50.4626 55.799 50.539C55.8393 50.6154 55.8964 50.6815 55.9661 50.7325C56.0358 50.7835 56.1162 50.8179 56.2011 50.8332C56.2861 50.8484 56.3735 50.8441 56.4565 50.8206C59.8651 49.8691 61.4747 52.1762 62.1305 49.4558C62.0959 46.1973 61.1098 34.4984 61.3638 31.7249C61.6178 28.9514 62.6732 21.4161 62.9365 19.407C63.1697 17.6612 59.5279 16.8829 58.5742 16.7097Z" fill="#407BFF"/>
<path opacity="0.7" d="M58.5742 16.7097C58.5496 16.7058 58.5245 16.7075 58.5007 16.7147C58.4769 16.7219 58.455 16.7345 58.4368 16.7514C58.4185 16.7683 58.4043 16.7891 58.3953 16.8123C58.3863 16.8355 58.3827 16.8605 58.3848 16.8852C58.4656 18.123 56.5374 20.3492 56.0755 27.0162C55.8007 31.0713 55.549 43.7148 55.7337 50.2918C55.7364 50.3781 55.7587 50.4626 55.799 50.539C55.8393 50.6154 55.8964 50.6815 55.9661 50.7325C56.0358 50.7835 56.1162 50.8179 56.2011 50.8332C56.2861 50.8484 56.3735 50.8441 56.4565 50.8206C59.8651 49.8691 61.4747 52.1762 62.1305 49.4558C62.0959 46.1973 61.1098 34.4984 61.3638 31.7249C61.6178 28.9514 62.6732 21.4161 62.9365 19.407C63.1697 17.6612 59.5279 16.8829 58.5742 16.7097Z" fill="white"/>
<path opacity="0.2" d="M60.8213 22.3606C60.6712 23.3906 60.6135 27.552 61.6042 29.5541C61.7704 28.1686 61.9875 26.522 62.1977 24.9355L60.8213 22.3606Z" fill="#407BFF"/>
<path d="M62.2371 40.3571L61.2534 40.4726L60.3827 42.0267C60.335 42.1109 60.3054 42.204 60.2959 42.3003C60.2863 42.3965 60.297 42.4937 60.3273 42.5856L60.6414 43.5416C60.6947 43.7053 60.807 43.8432 60.9564 43.9286C61.1058 44.0139 61.2816 44.0406 61.4496 44.0035L61.8884 43.9111C62.0497 43.8784 62.194 43.7893 62.2955 43.6598C62.3971 43.5303 62.4492 43.3689 62.4426 43.2045L62.4149 42.3547C62.4149 42.3547 63.1955 40.5511 62.2371 40.3571Z" fill="#FFB573"/>
<path d="M62.7774 18.6311C63.0915 19.5548 63.3824 20.467 63.6711 21.3907C63.9598 22.3145 64.2484 23.2382 64.5209 24.1619C64.7934 25.0856 65.0567 26.0301 65.2992 26.9931C65.4193 27.4758 65.5301 27.963 65.6363 28.4734C65.6848 28.7297 65.7333 28.9907 65.7726 29.2678C65.7911 29.411 65.8118 29.5426 65.8234 29.7019L65.8442 29.9329L65.8557 30.1938C65.8603 30.2815 65.8603 30.3694 65.8557 30.4571C65.8557 30.5495 65.8557 30.6372 65.8442 30.7088L65.8234 30.9397L65.798 31.1476C65.7657 31.427 65.7241 31.681 65.6825 31.935C65.5994 32.4385 65.5024 32.9234 65.4031 33.4038C65.2045 34.3644 64.9828 35.3043 64.7588 36.2396C64.5348 37.1749 64.2969 38.1078 64.066 39.0385L63.3732 41.8304L60.0293 40.9229C60.5466 39.1193 61.0177 37.2834 61.4542 35.4591C61.6666 34.5353 61.8652 33.6301 62.043 32.7271C62.1308 32.2653 62.2139 31.8265 62.274 31.3924C62.3086 31.1753 62.3363 30.9605 62.3548 30.7665C62.3728 30.6133 62.3789 30.4589 62.3733 30.3047V30.2077L62.3571 30.083C62.3571 30.0045 62.3294 29.9005 62.3155 29.8105C62.2832 29.6165 62.2416 29.411 62.1955 29.2008C62.1008 28.7805 61.9876 28.3464 61.8652 27.9099C61.6343 27.0347 61.341 26.1479 61.0431 25.2658C60.4542 23.5014 59.7915 21.7256 59.1079 19.9982L62.7774 18.6311Z" fill="#407BFF"/>
<path opacity="0.7" d="M62.7774 18.6311C63.0915 19.5548 63.3824 20.467 63.6711 21.3907C63.9598 22.3145 64.2484 23.2382 64.5209 24.1619C64.7934 25.0856 65.0567 26.0301 65.2992 26.9931C65.4193 27.4758 65.5301 27.963 65.6363 28.4734C65.6848 28.7297 65.7333 28.9907 65.7726 29.2678C65.7911 29.411 65.8118 29.5426 65.8234 29.7019L65.8442 29.9329L65.8557 30.1938C65.8603 30.2815 65.8603 30.3694 65.8557 30.4571C65.8557 30.5495 65.8557 30.6372 65.8442 30.7088L65.8234 30.9397L65.798 31.1476C65.7657 31.427 65.7241 31.681 65.6825 31.935C65.5994 32.4385 65.5024 32.9234 65.4031 33.4038C65.2045 34.3644 64.9828 35.3043 64.7588 36.2396C64.5348 37.1749 64.2969 38.1078 64.066 39.0385L63.3732 41.8304L60.0293 40.9229C60.5466 39.1193 61.0177 37.2834 61.4542 35.4591C61.6666 34.5353 61.8652 33.6301 62.043 32.7271C62.1308 32.2653 62.2139 31.8265 62.274 31.3924C62.3086 31.1753 62.3363 30.9605 62.3548 30.7665C62.3728 30.6133 62.3789 30.4589 62.3733 30.3047V30.2077L62.3571 30.083C62.3571 30.0045 62.3294 29.9005 62.3155 29.8105C62.2832 29.6165 62.2416 29.411 62.1955 29.2008C62.1008 28.7805 61.9876 28.3464 61.8652 27.9099C61.6343 27.0347 61.341 26.1479 61.0431 25.2658C60.4542 23.5014 59.7915 21.7256 59.1079 19.9982L62.7774 18.6311Z" fill="white"/>
<path d="M54.0831 16.5366C54.1338 16.5362 54.1837 16.5502 54.2267 16.5771C54.2698 16.6039 54.3044 16.6425 54.3264 16.6882C54.3484 16.734 54.357 16.785 54.3511 16.8354C54.3453 16.8858 54.3252 16.9336 54.2932 16.973C53.7436 17.6104 53.3972 18.4856 52.746 21.2937C51.9608 24.6815 50.2889 41.7265 49.9748 50.0793C49.9733 50.1487 49.9567 50.2169 49.9262 50.2793C49.8958 50.3417 49.8521 50.3967 49.7984 50.4406C49.7446 50.4845 49.6819 50.5162 49.6147 50.5336C49.5475 50.5509 49.4773 50.5535 49.409 50.5412C47.7787 50.241 46.661 51.0307 46.4831 49.9846C46.2868 48.83 47.0189 37.8007 48.3883 32.614C48.1736 28.0138 48.9495 18.7858 50.499 17.5596C51.3396 16.8783 53.127 16.5527 54.0831 16.5366Z" fill="#407BFF"/>
<path opacity="0.7" d="M54.0831 16.5366C54.1338 16.5362 54.1837 16.5502 54.2267 16.5771C54.2698 16.6039 54.3044 16.6425 54.3264 16.6882C54.3484 16.734 54.357 16.785 54.3511 16.8354C54.3453 16.8858 54.3252 16.9336 54.2932 16.973C53.7436 17.6104 53.3972 18.4856 52.746 21.2937C51.9608 24.6815 50.2889 41.7265 49.9748 50.0793C49.9733 50.1487 49.9567 50.2169 49.9262 50.2793C49.8958 50.3417 49.8521 50.3967 49.7984 50.4406C49.7446 50.4845 49.6819 50.5162 49.6147 50.5336C49.5475 50.5509 49.4773 50.5535 49.409 50.5412C47.7787 50.241 46.661 51.0307 46.4831 49.9846C46.2868 48.83 47.0189 37.8007 48.3883 32.614C48.1736 28.0138 48.9495 18.7858 50.499 17.5596C51.3396 16.8783 53.127 16.5527 54.0831 16.5366Z" fill="white"/>
<path d="M54.9811 18.8251C54.9811 18.8251 52.9858 24.4298 52.2838 29.1269C52.2284 30.404 52.8357 32.8772 53.3276 33.9557C54.3553 31.718 54.9973 30.3993 55.0989 29.1269C55.2628 27.2125 55.533 18.862 55.533 18.862L54.9811 18.8251Z" fill="#263238"/>
<path d="M59.1566 25.4921C59.1364 25.4914 59.117 25.4841 59.1013 25.4713C59.0856 25.4585 59.0746 25.441 59.0699 25.4213C59.0651 25.4016 59.067 25.381 59.0752 25.3625C59.0833 25.344 59.0973 25.3286 59.1151 25.3189L59.4938 25.1203C59.8473 24.9384 60.137 24.6531 60.3243 24.3024C60.5117 23.9518 60.5876 23.5523 60.5422 23.1574L60.1311 19.4347C60.1008 19.1572 59.978 18.898 59.7823 18.6989C59.5867 18.4998 59.3297 18.3723 59.0528 18.3371C58.7759 18.3019 58.4952 18.361 58.256 18.5048C58.0167 18.6486 57.8329 18.8688 57.7341 19.1299L56.4039 22.6285C56.2607 22.9993 56.2337 23.4049 56.3265 23.7914C56.4193 24.1779 56.6275 24.527 56.9235 24.7923L57.2422 25.081C57.2591 25.0983 57.2686 25.1215 57.2686 25.1457C57.2686 25.1698 57.2591 25.1931 57.2422 25.2103C57.2249 25.2273 57.2017 25.2367 57.1775 25.2367C57.1534 25.2367 57.1301 25.2273 57.1129 25.2103L56.7942 24.924C56.4717 24.6328 56.2454 24.2505 56.1452 23.8278C56.045 23.4051 56.0756 22.9619 56.233 22.5569L57.5747 19.0653C57.6893 18.7669 57.9007 18.5157 58.175 18.3518C58.4493 18.1878 58.7707 18.1207 59.0877 18.1612C59.4047 18.2016 59.699 18.3473 59.9233 18.5749C60.1477 18.8024 60.2892 19.0987 60.3251 19.4163L60.7362 23.1366C60.7848 23.5695 60.7004 24.0069 60.4941 24.3906C60.2878 24.7743 59.9695 25.086 59.5815 25.2842L59.2028 25.4805C59.1891 25.4894 59.1729 25.4934 59.1566 25.4921Z" fill="#263238"/>
<path d="M60.3018 20.2476C60.2798 20.2478 60.2585 20.2399 60.2419 20.2254C60.2253 20.211 60.2146 20.1909 60.2118 20.1691C60.158 19.8697 60.006 19.5968 59.7797 19.3935C59.5535 19.1902 59.2658 19.0682 58.9624 19.0468C58.4497 18.9821 57.7523 19.1438 57.4729 19.8181C57.4689 19.83 57.4625 19.841 57.4541 19.8504C57.4456 19.8598 57.4354 19.8673 57.4239 19.8726C57.4125 19.8779 57.4001 19.8807 57.3875 19.881C57.3748 19.8813 57.3623 19.879 57.3506 19.8743C57.339 19.8695 57.3284 19.8625 57.3195 19.8535C57.3107 19.8445 57.3038 19.8338 57.2992 19.822C57.2947 19.8103 57.2926 19.7977 57.293 19.7851C57.2935 19.7725 57.2966 19.7602 57.302 19.7488C57.4582 19.4468 57.7034 19.2001 58.0044 19.0421C58.3055 18.8842 58.6478 18.8226 58.9851 18.8657C59.3223 18.9088 59.6381 19.0545 59.8898 19.2831C60.1414 19.5117 60.3167 19.8121 60.3919 20.1437C60.3952 20.1673 60.389 20.1912 60.3747 20.2102C60.3605 20.2292 60.3392 20.2419 60.3157 20.2453L60.3018 20.2476Z" fill="#263238"/>
<path d="M59.0594 18.3378C59.0474 18.3372 59.0356 18.3342 59.0247 18.329C59.0139 18.3238 59.0042 18.3164 58.9962 18.3074C58.9882 18.2983 58.9822 18.2878 58.9783 18.2764C58.9745 18.2649 58.973 18.2528 58.974 18.2408C59.0017 17.7905 58.937 16.9707 58.5121 16.7582C58.4904 16.7469 58.474 16.7274 58.4667 16.704C58.4593 16.6806 58.4615 16.6553 58.4729 16.6335C58.4842 16.6118 58.5037 16.5954 58.5271 16.5881C58.5505 16.5807 58.5758 16.583 58.5976 16.5943C59.2118 16.9107 59.1564 18.1161 59.1472 18.2524C59.146 18.275 59.1363 18.2965 59.1201 18.3123C59.1038 18.3281 59.0821 18.3373 59.0594 18.3378Z" fill="#263238"/>
<path d="M57.3851 25.1734C57.362 25.3466 57.2535 25.4736 57.1404 25.4574C57.0272 25.4413 56.9533 25.2935 56.9764 25.1226C56.9995 24.9517 57.1057 24.8224 57.2189 24.8385C57.332 24.8547 57.4059 25.0025 57.3851 25.1734Z" fill="#263238"/>
<path d="M52.0164 21.43C51.8709 21.7972 51.5546 22.0189 51.3236 21.9242C51.0927 21.8295 51.0026 21.4623 51.1481 21.0859C51.2936 20.7095 51.61 20.497 51.8409 20.5917C52.0718 20.6864 52.1596 21.0628 52.0164 21.43Z" fill="#263238"/>
<path d="M51.2559 21.1921H51.2374C51.2136 21.1871 51.1927 21.1729 51.1793 21.1526C51.1659 21.1323 51.1611 21.1075 51.1659 21.0836C51.4707 19.5664 52.7316 17.1578 53.8424 16.465C53.8524 16.4563 53.8643 16.4498 53.8771 16.4462C53.8899 16.4425 53.9033 16.4416 53.9165 16.4435C53.9296 16.4455 53.9422 16.4503 53.9533 16.4576C53.9645 16.4649 53.9739 16.4745 53.981 16.4858C53.988 16.4971 53.9926 16.5098 53.9943 16.523C53.996 16.5362 53.9949 16.5496 53.9909 16.5623C53.987 16.575 53.9803 16.5867 53.9714 16.5966C53.9625 16.6065 53.9516 16.6144 53.9393 16.6197C52.8655 17.2963 51.6439 19.6218 51.346 21.1159C51.3422 21.1371 51.3312 21.1564 51.3147 21.1703C51.2983 21.1842 51.2775 21.1919 51.2559 21.1921Z" fill="#263238"/>
<path d="M52.2794 21.5062C52.1731 21.8226 51.9006 22.0188 51.6697 21.9426C51.4388 21.8664 51.3349 21.5454 51.4388 21.2268C51.5427 20.9081 51.8175 20.7141 52.0484 20.7903C52.2794 20.8665 52.3856 21.1875 52.2794 21.5062Z" fill="white"/>
<path d="M52.2955 21.5385C52.1546 21.9288 51.8937 22.1944 51.7159 22.1297C51.538 22.065 51.508 21.6956 51.6512 21.303C51.7944 20.9104 52.053 20.6471 52.2308 20.7118C52.4087 20.7764 52.4387 21.1459 52.2955 21.5385Z" fill="#263238"/>
<path d="M59.3617 25.4274C59.3409 25.5983 59.2301 25.7253 59.1169 25.7114C59.0038 25.6976 58.9299 25.5452 58.953 25.3743C58.9761 25.2034 59.0846 25.0764 59.1977 25.0902C59.3109 25.1041 59.3848 25.2542 59.3617 25.4274Z" fill="#263238"/>
<path d="M72.4558 15.4212C73.2271 17.5296 71.1764 18.5895 69.8324 21.6956C68.4884 24.8016 71.7307 28.5057 76.7072 28.5865C81.6838 28.6674 81.8408 23.9009 81.0695 20.4809C80.2982 17.0608 81.9101 16.5042 81.5683 13.8924C81.1295 10.4608 76.1853 7.86047 74.2224 11.0104C72.4766 10.8464 71.7815 13.5783 72.4558 15.4212Z" fill="#263238"/>
<path d="M87.1962 43.8026V43.5347C87.1916 43.4062 87.1593 43.2801 87.1015 43.1652L86.2656 41.5164L85.2864 41.3316C84.5936 42.0775 85.2864 43.5647 85.2864 43.5647V43.8026C85.2865 43.9975 85.3502 44.187 85.4677 44.3424C85.5852 44.4978 85.7502 44.6107 85.9377 44.664L86.0693 44.7032C86.2049 44.739 86.3469 44.7425 86.4841 44.7136C86.6213 44.6846 86.7498 44.6239 86.8593 44.5364C86.9688 44.4489 87.0563 44.3369 87.1149 44.2095C87.1734 44.0821 87.2012 43.9427 87.1962 43.8026Z" fill="#FFC3BD"/>
<path d="M83.0461 22.5916L83.4064 25.118L83.7851 27.6374C83.9098 28.4803 84.0415 29.3186 84.1754 30.1592L84.5749 32.6625L84.6234 32.9096C84.6396 32.9904 84.6673 33.0943 84.6881 33.1844L84.7573 33.4684L84.8382 33.7617C84.9421 34.1497 85.0691 34.5515 85.1799 34.9487C85.4109 35.7454 85.6764 36.5514 85.9374 37.3527C86.4685 38.953 87.0228 40.5603 87.614 42.1399L84.3486 43.2945L82.7136 38.4127C82.4434 37.5975 82.1686 36.7823 81.9076 35.9509C81.7783 35.533 81.649 35.1196 81.5266 34.6877L81.4319 34.3667L81.3419 34.0319C81.3118 33.9164 81.2795 33.8148 81.2518 33.6878L81.1664 33.3091L80.6837 30.7688C80.5298 29.9313 80.3689 29.0938 80.2011 28.2563L79.7069 25.7438L79.1919 23.2497L83.0461 22.5916Z" fill="#407BFF"/>
<path opacity="0.6" d="M83.0461 22.5916L83.4064 25.118L83.7851 27.6374C83.9098 28.4803 84.0415 29.3186 84.1754 30.1592L84.5749 32.6625L84.6234 32.9096C84.6396 32.9904 84.6673 33.0943 84.6881 33.1844L84.7573 33.4684L84.8382 33.7617C84.9421 34.1497 85.0691 34.5515 85.1799 34.9487C85.4109 35.7454 85.6764 36.5514 85.9374 37.3527C86.4685 38.953 87.0228 40.5603 87.614 42.1399L84.3486 43.2945L82.7136 38.4127C82.4434 37.5975 82.1686 36.7823 81.9076 35.9509C81.7783 35.533 81.649 35.1196 81.5266 34.6877L81.4319 34.3667L81.3419 34.0319C81.3118 33.9164 81.2795 33.8148 81.2518 33.6878L81.1664 33.3091L80.6837 30.7688C80.5298 29.9313 80.3689 29.0938 80.2011 28.2563L79.7069 25.7438L79.1919 23.2497L83.0461 22.5916Z" fill="white"/>
<path d="M82.5268 22.3976C82.6354 23.6285 82.5384 26.6906 81.3029 34.2813H72.7584C72.8947 30.9836 72.9039 28.8821 71.4883 22.5893C71.4562 22.4478 71.4533 22.3012 71.48 22.1585C71.5067 22.0159 71.5624 21.8802 71.6435 21.7599C71.7246 21.6396 71.8296 21.5372 71.9518 21.459C72.0741 21.3808 72.2111 21.3285 72.3543 21.3053C73.1886 21.1683 74.0296 21.0765 74.8738 21.0305C76.1669 20.938 77.4649 20.938 78.758 21.0305C79.8203 21.1275 80.9727 21.3191 81.6701 21.4462C81.8972 21.4893 82.104 21.6057 82.2588 21.7775C82.4135 21.9493 82.5077 22.1671 82.5268 22.3976Z" fill="#263238"/>
<path d="M75.2504 16.6566C75.4952 17.906 75.74 20.1968 74.8647 21.0305C74.8647 21.0305 75.9594 22.3606 77.6359 22.3606C79.3125 22.3606 78.7513 21.0305 78.7513 21.0305C77.3657 20.6979 77.3934 19.6634 77.6359 18.6935L75.2504 16.6566Z" fill="#FFC3BD"/>
<path opacity="0.2" d="M76.2224 17.488L77.6334 18.6911C77.5735 18.9182 77.5333 19.15 77.5133 19.3839C76.9798 19.3077 76.1439 18.8528 76.0284 18.2732C75.9753 17.9983 76.1762 17.6173 76.2224 17.488Z" fill="black"/>
<path d="M73.7789 14.2041C74.1045 16.2687 74.1992 17.1485 75.3492 18.1138C77.0812 19.5664 79.5452 18.7142 79.8431 16.5943C80.111 14.6868 79.5314 11.6293 77.4207 10.9988C76.9557 10.8574 76.4622 10.8371 75.9872 10.94C75.5122 11.0429 75.0713 11.2654 74.7065 11.5865C74.3416 11.9076 74.0649 12.3167 73.9026 12.7748C73.7402 13.2329 73.6977 13.7249 73.7789 14.2041Z" fill="#FFC3BD"/>
<path d="M74.1229 15.6913C75.3053 14.5205 75.7117 12.8925 75.6009 12.2274C76.7394 12.5438 77.5753 12.0958 77.5245 11.9018C78.3282 12.6869 79.7853 13.3081 79.6214 12.4629C79.4574 11.6177 78.379 10.0589 76.1297 10.6155C73.8804 11.172 73.0144 13.4813 73.0468 14.4189C73.0791 15.3565 74.1229 15.6913 74.1229 15.6913Z" fill="#263238"/>
<path d="M76.7417 14.4374C76.7579 14.6083 76.8595 14.7353 76.9726 14.726C77.0858 14.7168 77.1597 14.569 77.1435 14.4004C77.1274 14.2318 77.0234 14.1025 76.9126 14.1118C76.8017 14.121 76.7417 14.2688 76.7417 14.4374Z" fill="#263238"/>
<path d="M78.6613 14.255C78.6775 14.4235 78.7814 14.5529 78.8923 14.5413C79.0031 14.5298 79.0793 14.3866 79.0632 14.218C79.047 14.0494 78.9431 13.9201 78.8322 13.9293C78.7214 13.9386 78.6452 14.0864 78.6613 14.255Z" fill="#263238"/>
<path d="M78.7856 13.9432L79.1805 13.7885C79.1805 13.7885 79.0004 14.1256 78.7856 13.9432Z" fill="#263238"/>
<path d="M78.1021 14.6152C78.2888 14.9869 78.5258 15.3312 78.8064 15.6382C78.7261 15.7078 78.6316 15.7591 78.5296 15.7886C78.4275 15.8181 78.3202 15.8251 78.2152 15.8091L78.1021 14.6152Z" fill="#ED847E"/>
<path d="M77.3562 16.5527C77.44 16.5584 77.5241 16.5584 77.6079 16.5527C77.621 16.551 77.6329 16.5442 77.641 16.5339C77.6492 16.5235 77.6531 16.5104 77.6518 16.4973C77.6515 16.4908 77.6499 16.4844 77.647 16.4786C77.6441 16.4728 77.64 16.4676 77.635 16.4635C77.63 16.4593 77.6242 16.4563 77.6179 16.4546C77.6116 16.4528 77.6051 16.4524 77.5987 16.4534C77.3885 16.4777 77.1756 16.4524 76.9771 16.3794C76.7785 16.3064 76.5999 16.1878 76.4555 16.0331C76.4466 16.025 76.4351 16.0204 76.4231 16.02C76.411 16.0196 76.3993 16.0235 76.3898 16.031C76.3804 16.0385 76.3739 16.0491 76.3716 16.0609C76.3692 16.0727 76.3712 16.0849 76.377 16.0955C76.5019 16.2326 76.6528 16.3436 76.8209 16.4221C76.9889 16.5005 77.1709 16.5449 77.3562 16.5527Z" fill="#263238"/>
<path d="M73.3219 15.883C73.4761 16.2568 73.7715 16.5547 74.144 16.7121C74.6382 16.9153 74.9499 16.4811 74.8645 15.9893C74.7883 15.5274 74.4373 14.8877 73.9154 14.8969C73.8018 14.9025 73.6912 14.9359 73.5936 14.9943C73.496 15.0527 73.4142 15.1342 73.3556 15.2317C73.2969 15.3291 73.2631 15.4395 73.2573 15.5531C73.2514 15.6667 73.2736 15.78 73.3219 15.883Z" fill="#FFC3BD"/>
<path d="M76.0837 13.5506C76.1036 13.5576 76.1252 13.5583 76.1454 13.5525C76.1657 13.5467 76.1837 13.5348 76.1969 13.5183C76.4878 13.1603 77.0813 13.195 77.0859 13.195C77.1122 13.1963 77.1379 13.1874 77.1577 13.1702C77.1775 13.153 77.1898 13.1287 77.1922 13.1026C77.1934 13.0895 77.192 13.0763 77.188 13.0637C77.184 13.0512 77.1775 13.0396 77.1688 13.0296C77.1602 13.0197 77.1496 13.0116 77.1377 13.0059C77.1259 13.0002 77.113 12.997 77.0998 12.9964C77.0721 12.9964 76.3955 12.9548 76.0421 13.3936C76.0257 13.4143 76.0179 13.4405 76.0205 13.4668C76.0231 13.4931 76.0358 13.5174 76.056 13.5345L76.0837 13.5506Z" fill="#263238"/>
<path d="M79.3559 13.3405C79.3778 13.3418 79.3995 13.3358 79.4177 13.3235C79.4358 13.3112 79.4494 13.2932 79.4563 13.2724C79.4631 13.2516 79.4629 13.229 79.4556 13.2083C79.4483 13.1877 79.4344 13.17 79.416 13.158C79.2867 13.0668 79.1376 13.0077 78.981 12.9856C78.8244 12.9635 78.6647 12.9791 78.5153 13.031C78.491 13.0417 78.4719 13.0614 78.462 13.086C78.452 13.1106 78.4521 13.1381 78.4622 13.1626C78.4672 13.1749 78.4747 13.186 78.4841 13.1953C78.4934 13.2046 78.5046 13.2119 78.5169 13.2169C78.5291 13.2218 78.5422 13.2243 78.5555 13.2241C78.5687 13.2239 78.5817 13.2211 78.5938 13.2158C78.7125 13.1762 78.8389 13.1655 78.9626 13.1843C79.0862 13.2032 79.2036 13.2512 79.3051 13.3243C79.3203 13.3341 79.3378 13.3397 79.3559 13.3405Z" fill="#263238"/>
<path d="M86.6115 82.0887L88.7384 81.9871L88.108 77.1837L85.9834 77.2876L86.6115 82.0887Z" fill="#FFC3BD"/>
<g opacity="0.2">
<path d="M88.1083 77.186L88.4339 79.6616L86.3071 79.7632L85.9814 77.2876L88.1083 77.186Z" fill="black"/>
</g>
<path d="M81.3026 34.2813C81.3026 34.2813 83.9791 50.5042 85.0691 56.8294C86.2053 63.4063 88.764 78.8857 88.764 78.8857L85.9512 79.3475C85.9512 79.3475 82.1593 63.852 80.6398 57.4091C78.991 50.3772 74.9959 40.9483 75.0374 34.2998L81.3026 34.2813Z" fill="#407BFF"/>
<path opacity="0.2" d="M77.0053 39.2602C76.6034 38.6759 75.8298 37.8561 75.2363 37.1818C75.7744 41.3155 77.3147 46.1119 78.7211 50.6289C79.0952 47.188 78.8827 41.969 77.0053 39.2602Z" fill="black"/>
<path d="M73.4902 81.7631H75.5963L75.7372 76.8858H73.6288L73.4902 81.7631Z" fill="#FFC3BD"/>
<path d="M75.6958 81.4444H73.3287C73.2877 81.444 73.248 81.4585 73.217 81.4853C73.186 81.5121 73.1657 81.5493 73.1601 81.5899L72.8899 83.4604C72.8851 83.5079 72.8903 83.5559 72.9051 83.6013C72.92 83.6467 72.9442 83.6885 72.9761 83.7239C73.0081 83.7594 73.0472 83.7878 73.0908 83.8072C73.1344 83.8267 73.1817 83.8367 73.2294 83.8368C74.0538 83.8207 74.451 83.7722 75.4925 83.7722C76.1322 83.7722 77.4555 83.8391 78.3399 83.8391C79.2244 83.8391 79.2636 82.9662 78.9034 82.8854C77.2522 82.5321 76.5941 82.0425 76.0468 81.5737C75.9483 81.4912 75.8242 81.4455 75.6958 81.4444Z" fill="#263238"/>
<g opacity="0.2">
<path d="M75.7353 76.8881L75.6637 79.4029H73.5576L73.6292 76.8881H75.7353Z" fill="black"/>
</g>
<path d="M78.8986 34.2813C78.8986 34.2813 78.0442 50.712 77.4669 57.1088C76.8641 63.7643 76.139 78.8464 76.139 78.8464H73.2893C73.2893 78.8464 72.7813 63.822 72.9799 57.2589C73.1946 50.1001 71.4742 40.9298 72.6358 34.2813H78.8986Z" fill="#407BFF"/>
<path d="M73.0427 78.948L76.3842 79.0104L76.435 76.9735L73.0288 77.186L73.0427 78.948Z" fill="#263238"/>
<path d="M76.4852 81.8208C76.6651 81.8373 76.8452 81.7917 76.9955 81.6915C77.0295 81.6612 77.0555 81.623 77.0712 81.5803C77.0869 81.5377 77.0918 81.4918 77.0856 81.4467C77.0839 81.4195 77.0754 81.3932 77.0609 81.3702C77.0464 81.3472 77.0263 81.3282 77.0025 81.3151C76.7438 81.1719 75.9032 81.6014 75.8085 81.6522C75.7997 81.6572 75.7926 81.6647 75.7881 81.6737C75.7835 81.6828 75.7818 81.693 75.7831 81.703C75.7844 81.7132 75.7889 81.7227 75.796 81.7302C75.803 81.7377 75.8123 81.7427 75.8224 81.7446C76.0404 81.7911 76.2623 81.8166 76.4852 81.8208ZM76.8616 81.3843C76.8934 81.3835 76.9249 81.3898 76.954 81.4028C76.9637 81.4079 76.9718 81.4155 76.9775 81.4249C76.9832 81.4342 76.9863 81.445 76.9863 81.4559C76.9914 81.4852 76.9887 81.5153 76.9786 81.5433C76.9684 81.5712 76.9512 81.596 76.9286 81.6153C76.8015 81.7307 76.4551 81.7515 75.9887 81.673C76.261 81.5276 76.5562 81.4299 76.8616 81.3843Z" fill="#407BFF"/>
<path d="M75.8319 81.7469H75.8527C76.1044 81.6337 76.6009 81.1788 76.5617 80.9409C76.5617 80.8832 76.5132 80.8139 76.3746 80.8001C76.325 80.7943 76.2748 80.799 76.2271 80.8137C76.1794 80.8284 76.1353 80.8529 76.0975 80.8855C75.8343 81.1049 75.7858 81.673 75.7835 81.6961C75.7826 81.7049 75.784 81.7139 75.7877 81.722C75.7913 81.7301 75.797 81.7371 75.8042 81.7423C75.813 81.7461 75.8225 81.7477 75.8319 81.7469ZM76.3354 80.8924H76.3654C76.4555 80.8924 76.4624 80.9363 76.4624 80.9502C76.4878 81.0934 76.1506 81.449 75.8943 81.6037C75.9141 81.3649 76.0077 81.1381 76.1622 80.9548C76.2104 80.9137 76.272 80.8915 76.3354 80.8924Z" fill="#407BFF"/>
<path d="M88.7133 81.4444H86.3463C86.3273 81.4432 86.3082 81.4462 86.2905 81.4533C86.2729 81.4603 86.2569 81.4711 86.2439 81.485C86.2309 81.4989 86.2211 81.5155 86.2153 81.5337C86.2094 81.5518 86.2076 81.571 86.21 81.5899L86.3301 83.4604C86.3441 83.562 86.3935 83.6554 86.4695 83.7242C86.5455 83.793 86.6433 83.8329 86.7458 83.8368C87.5679 83.8206 87.9559 83.7722 88.9951 83.7722C89.637 83.7722 90.9741 83.8391 91.8586 83.8391C92.7431 83.8391 92.6068 82.9662 92.2235 82.8854C90.4984 82.5321 89.7456 82.0425 89.0921 81.5737C88.982 81.4929 88.8498 81.4477 88.7133 81.4444Z" fill="#263238"/>
<path d="M89.5036 81.8208C89.6842 81.8373 89.8651 81.7917 90.0163 81.6915C90.0499 81.661 90.0756 81.6228 90.0913 81.5801C90.107 81.5375 90.1121 81.4917 90.1063 81.4467C90.1042 81.4194 90.0953 81.393 90.0804 81.37C90.0654 81.347 90.045 81.3281 90.0209 81.3151C89.7622 81.1719 88.924 81.6014 88.8293 81.6522C88.82 81.6569 88.8124 81.6642 88.8075 81.6733C88.8025 81.6824 88.8005 81.6927 88.8016 81.703C88.8035 81.713 88.8082 81.7222 88.8151 81.7295C88.8221 81.7369 88.831 81.7421 88.8408 81.7446C89.0588 81.7911 89.2807 81.8166 89.5036 81.8208ZM89.88 81.3843C89.9118 81.383 89.9435 81.3893 89.9724 81.4028C89.9824 81.4078 89.9909 81.4153 89.997 81.4246C90.003 81.434 90.0065 81.4448 90.007 81.4559C90.011 81.4852 90.0078 81.515 89.9978 81.5427C89.9877 81.5705 89.9711 81.5954 89.9493 81.6153C89.82 81.7307 89.4736 81.7515 89.0071 81.673C89.2796 81.5279 89.5748 81.4303 89.88 81.3843Z" fill="#407BFF"/>
<path d="M88.8521 81.7469H88.8729C89.1223 81.6337 89.6188 81.1788 89.5795 80.9409C89.5795 80.8832 89.531 80.8139 89.3925 80.8001C89.3432 80.7944 89.2934 80.799 89.246 80.8138C89.1987 80.8285 89.155 80.8529 89.1177 80.8855C88.8521 81.1049 88.8036 81.673 88.8013 81.6961C88.801 81.7049 88.8028 81.7136 88.8064 81.7216C88.81 81.7296 88.8153 81.7367 88.8221 81.7423C88.8316 81.7462 88.8419 81.7478 88.8521 81.7469ZM89.3532 80.8924H89.3832C89.4733 80.8924 89.4802 80.9363 89.4825 80.9502C89.5056 81.0933 89.1685 81.449 88.9121 81.6037C88.9328 81.3651 89.0263 81.1385 89.18 80.9548C89.2285 80.914 89.2899 80.8919 89.3532 80.8924Z" fill="#407BFF"/>
<path d="M85.7158 79.4791L89.0158 78.948L88.644 77.1837L85.374 77.955L85.7158 79.4791Z" fill="#263238"/>
<path d="M76.8735 14.1256L77.2684 13.9709C77.2684 13.9709 77.0906 14.3081 76.8735 14.1256Z" fill="#263238"/>
<path d="M72.6197 33.7802L72.4026 34.5469C72.3726 34.6046 72.4418 34.667 72.5411 34.667H81.3442C81.4227 34.667 81.4851 34.6277 81.4897 34.5792L81.5682 33.8148C81.5682 33.7617 81.5059 33.7155 81.4227 33.7155H72.7605C72.7335 33.7132 72.7062 33.7179 72.6816 33.7293C72.6569 33.7406 72.6355 33.7581 72.6197 33.7802Z" fill="#263238"/>
<path d="M73.814 34.7478H73.583C73.5368 34.7478 73.5022 34.7247 73.5045 34.697L73.613 33.7017C73.613 33.6716 73.6569 33.6485 73.7031 33.6485H73.934C73.9802 33.6485 74.0149 33.6716 74.0125 33.7017L73.9017 34.697C73.8994 34.7247 73.8601 34.7478 73.814 34.7478Z" fill="#407BFF"/>
<path d="M80.6931 34.7478H80.4622C80.416 34.7478 80.3791 34.7247 80.3837 34.697L80.4922 33.7017C80.4922 33.6716 80.5361 33.6485 80.5823 33.6485H80.8132C80.8594 33.6485 80.8941 33.6716 80.8917 33.7017L80.7832 34.697C80.7786 34.7247 80.7393 34.7478 80.6931 34.7478Z" fill="#407BFF"/>
<path d="M77.2661 34.7478H77.0352C76.989 34.7478 76.9543 34.7247 76.9567 34.697L77.0652 33.7017C77.0652 33.6716 77.1091 33.6485 77.1553 33.6485H77.3862C77.4324 33.6485 77.467 33.6716 77.4624 33.7017L77.3539 34.697C77.3539 34.7247 77.3123 34.7478 77.2661 34.7478Z" fill="#407BFF"/>
<path d="M74.4947 20.9612C73.153 21.0836 71.1023 20.8296 71.1647 22.8872C71.227 24.9448 70.8275 30.3947 70.9337 32.9465C71.04 35.4983 70.3749 52.0214 71.451 56.8109C71.6404 57.6538 78.5914 57.5453 79.432 57.4645V56.7047C79.432 56.7047 84.4825 56.0258 85.7318 56.2429C85.6233 53.3655 82.8267 38.8306 82.7181 34.7478C82.6096 30.6649 83.0692 23.6492 83.0414 22.5361C83.0137 21.4231 80.8014 20.9335 79.4458 20.9612C79.7461 21.9657 79.0833 23.8525 78.0233 25.9562C75.4161 23.416 74.6471 22.1551 74.4947 20.9612Z" fill="#407BFF"/>
<path opacity="0.7" d="M74.4947 20.9612C73.153 21.0836 71.1023 20.8296 71.1647 22.8872C71.227 24.9448 70.8275 30.3947 70.9337 32.9465C71.04 35.4983 70.3749 52.0214 71.451 56.8109C71.6404 57.6538 78.5914 57.5453 79.432 57.4645V56.7047C79.432 56.7047 84.4825 56.0258 85.7318 56.2429C85.6233 53.3655 82.8267 38.8306 82.7181 34.7478C82.6096 30.6649 83.0692 23.6492 83.0414 22.5361C83.0137 21.4231 80.8014 20.9335 79.4458 20.9612C79.7461 21.9657 79.0833 23.8525 78.0233 25.9562C75.4161 23.416 74.6471 22.1551 74.4947 20.9612Z" fill="white"/>
<path opacity="0.2" d="M71.9409 25.8408L71.0818 26.4481C71.0148 28.2263 70.9248 30.2192 70.9155 31.7595C71.7145 29.9929 72.1649 27.4434 71.9409 25.8408Z" fill="#407BFF"/>
<path d="M74.6773 23.9956C74.6337 24.0604 74.5867 24.1229 74.5365 24.1827L74.488 24.2381L74.4626 24.2658L74.4164 24.3143L74.324 24.4136L74.1393 24.6191C74.0146 24.7554 73.8945 24.8963 73.7744 25.0394C73.5342 25.3258 73.3033 25.6175 73.0816 25.9147C72.6287 26.5081 72.207 27.1247 71.8184 27.7621C71.0548 28.9388 70.503 30.2401 70.188 31.6071C70.1299 31.912 70.0936 32.2207 70.0795 32.5308C70.0939 32.6851 70.1386 32.835 70.2111 32.9719C70.5043 33.5927 70.857 34.1835 71.2642 34.7362C71.6914 35.3459 72.1764 35.9394 72.6729 36.526C72.9223 36.8216 73.1809 37.1079 73.4419 37.392C73.7028 37.676 73.9753 37.967 74.2293 38.2187L71.7399 40.625C71.4374 40.2948 71.1695 39.9945 70.8901 39.6782L70.0749 38.7244C69.5345 38.0847 69.0149 37.4197 68.5023 36.7222C67.9456 35.9856 67.4644 35.195 67.0659 34.3621C66.9493 34.1041 66.8498 33.8388 66.768 33.5677C66.7199 33.4063 66.6821 33.242 66.6548 33.0758C66.6371 32.9804 66.6247 32.884 66.6179 32.7872C66.6086 32.6859 66.6047 32.5841 66.6063 32.4824C66.6118 31.9865 66.6542 31.4917 66.7333 31.0021C66.8932 30.0772 67.1518 29.1722 67.5046 28.3025C67.8366 27.4791 68.2223 26.6783 68.6593 25.9054C69.0842 25.1434 69.5507 24.4159 70.0333 23.7047C70.2781 23.349 70.5275 23.0003 70.7885 22.6562L71.1834 22.1413L71.3889 21.8826L71.4928 21.7533L71.5459 21.6909L71.569 21.6609L71.5367 21.6979C71.4951 21.751 71.4559 21.8041 71.4189 21.8595L74.6773 23.9956Z" fill="#407BFF"/>
<path opacity="0.7" d="M74.6773 23.9956C74.6337 24.0604 74.5867 24.1229 74.5365 24.1827L74.488 24.2381L74.4626 24.2658L74.4164 24.3143L74.324 24.4136L74.1393 24.6191C74.0146 24.7554 73.8945 24.8963 73.7744 25.0394C73.5342 25.3258 73.3033 25.6175 73.0816 25.9147C72.6287 26.5081 72.207 27.1247 71.8184 27.7621C71.0548 28.9388 70.503 30.2401 70.188 31.6071C70.1299 31.912 70.0936 32.2207 70.0795 32.5308C70.0939 32.6851 70.1386 32.835 70.2111 32.9719C70.5043 33.5927 70.857 34.1835 71.2642 34.7362C71.6914 35.3459 72.1764 35.9394 72.6729 36.526C72.9223 36.8216 73.1809 37.1079 73.4419 37.392C73.7028 37.676 73.9753 37.967 74.2293 38.2187L71.7399 40.625C71.4374 40.2948 71.1695 39.9945 70.8901 39.6782L70.0749 38.7244C69.5345 38.0847 69.0149 37.4197 68.5023 36.7222C67.9456 35.9856 67.4644 35.195 67.0659 34.3621C66.9493 34.1041 66.8498 33.8388 66.768 33.5677C66.7199 33.4063 66.6821 33.242 66.6548 33.0758C66.6371 32.9804 66.6247 32.884 66.6179 32.7872C66.6086 32.6859 66.6047 32.5841 66.6063 32.4824C66.6118 31.9865 66.6542 31.4917 66.7333 31.0021C66.8932 30.0772 67.1518 29.1722 67.5046 28.3025C67.8366 27.4791 68.2223 26.6783 68.6593 25.9054C69.0842 25.1434 69.5507 24.4159 70.0333 23.7047C70.2781 23.349 70.5275 23.0003 70.7885 22.6562L71.1834 22.1413L71.3889 21.8826L71.4928 21.7533L71.5459 21.6909L71.569 21.6609L71.5367 21.6979C71.4951 21.751 71.4559 21.8041 71.4189 21.8595L74.6773 23.9956Z" fill="white"/>
<path opacity="0.3" d="M78.0259 25.9562C78.2684 30.8843 79.5847 48.0702 79.4346 56.7047L79.8364 56.6516C79.8364 56.6516 79.2129 43.3731 78.9311 37.5628C78.6494 31.7526 78.0259 25.9562 78.0259 25.9562Z" fill="#407BFF"/>
<path opacity="0.3" d="M74.0353 38.2602L71.5689 40.9298C71.5689 41.8258 70.9431 43.6178 72.6012 44.2691C74.2593 44.9203 74.3031 40.1954 74.0353 38.2602Z" fill="#407BFF"/>
<path opacity="0.3" d="M82.0762 38.1771L83.1616 40.8975C83.1939 41.8212 83.5103 43.6687 82.8683 44.373C82.2263 45.0773 82.0393 40.1793 82.0762 38.1771Z" fill="#407BFF"/>
<path d="M79.3813 27.6721L82.0902 27.6536C82.1171 27.6548 82.1441 27.6501 82.1691 27.6398C82.1941 27.6296 82.2166 27.6141 82.235 27.5943C82.2534 27.5746 82.2674 27.5511 82.2759 27.5254C82.2843 27.4998 82.2872 27.4726 82.2841 27.4457L82.134 26.1618C82.1251 26.1062 82.0972 26.0554 82.0551 26.0179C82.013 25.9805 81.9594 25.9587 81.9031 25.9562L79.192 25.9724C79.1651 25.9716 79.1383 25.9766 79.1135 25.9869C79.0887 25.9973 79.0664 26.0128 79.048 26.0325C79.0297 26.0521 79.0157 26.0755 79.0071 26.101C78.9984 26.1264 78.9953 26.1535 78.998 26.1802L79.1481 27.4665C79.1576 27.5223 79.1859 27.5732 79.2283 27.6106C79.2708 27.648 79.3248 27.6697 79.3813 27.6721Z" fill="white" stroke="#407BFF" stroke-width="0.5" stroke-miterlimit="10"/>
</svg>
